<svg width="456" height="427" viewBox="0 0 456 427" fill="none" xmlns="http://www.w3.org/2000/svg">
<path d="M455.563 151.076C455.563 132.156 442.677 116.243 425.204 111.636C425.651 111.025 426.071 110.372 426.458 109.701C432.297 99.588 428.832 86.629 418.718 80.79C412.298 77.083 404.743 77.077 398.587 80.19C394.846 56.608 374.683 38.402 350.182 37.846C340.525 15.978 318.644 0.770996 293.18 0.770996C262.12 0.770996 236.377 23.551 231.66 53.283C224.018 49.418 214.64 49.383 206.669 53.984C194.114 61.232 189.813 77.298 197.061 89.853C197.542 90.686 198.063 91.485 198.618 92.244C189.059 94.764 180.608 100.012 174.142 107.101C163.192 97.554 148.87 91.771 133.179 91.771C102.119 91.771 76.3762 114.551 71.6592 144.283C64.0162 140.418 54.6392 140.383 46.6682 144.984C34.1132 152.232 29.8122 168.298 37.0602 180.853C37.5412 181.686 38.0622 182.485 38.6172 183.244C16.9272 188.963 0.930176 208.712 0.930176 232.2C0.930176 260.16 23.1392 282.828 51.1002 282.828C52.8762 282.828 195 283.013 195 283.013V189.272C200 190.922 205.31 191.828 210.859 191.828C211.867 191.828 259 191.888 298 191.939V192.013C298 192.013 310.256 191.997 326.557 191.976C334.525 191.986 341.482 191.995 346.481 192.002C345.402 196.197 344.886 200.594 344.886 205.126C344.886 234.141 368.437 257.662 397.452 257.662C426.467 257.662 450.003 234.141 450.003 205.126C450.003 195.998 447.679 187.416 443.585 179.937C450.979 172.554 455.563 162.349 455.563 151.076Z" fill="#F2F2F2"/>
<path d="M313 188V47H141V188H59.0005V395H395V188H313Z" fill="#0FC2C0"/>
<path d="M296.236 82.96H208.435V92.637H296.236V82.96Z" fill="white"/>
<path d="M296.236 130.376H208.435V140.053H296.236V130.376Z" fill="white"/>
<path d="M296.236 177.792H208.435V187.469H296.236V177.792Z" fill="white"/>
<path d="M296.236 225.209H208.435V234.886H296.236V225.209Z" fill="white"/>
<path d="M296.236 272.625H208.435V282.302H296.236V272.625Z" fill="white"/>
<path d="M189.808 82.96H162.026V92.637H189.808V82.96Z" fill="white"/>
<path d="M189.808 130.376H162.026V140.053H189.808V130.376Z" fill="white"/>
<path d="M189.808 177.792H162.026V187.469H189.808V177.792Z" fill="white"/>
<path d="M189.808 225.209H162.026V234.886H189.808V225.209Z" fill="white"/>
<path d="M189.808 272.625H162.026V282.302H189.808V272.625Z" fill="white"/>
<path d="M141.576 340.958V188.085H126.19V325.572C126.19 334.07 133.078 340.958 141.576 340.958Z" fill="#34C1AD"/>
<path d="M313.269 340.958V188.085H328.655V325.572C328.655 334.07 321.767 340.958 313.269 340.958Z" fill="#34C1AD"/>
<path d="M126.19 225.209H59.5762V234.886H126.19V225.209Z" fill="white"/>
<path d="M133.883 225.209H126.19V234.886H133.883V225.209Z" fill="#CAD8EF"/>
<path d="M126.19 272.625H59.5762V282.302H126.19V272.625Z" fill="white"/>
<path d="M133.883 272.625H126.19V282.302H133.883V272.625Z" fill="#CAD8EF"/>
<path d="M328.656 234.885L395.27 234.885L395.27 225.208L328.656 225.208L328.656 234.885Z" fill="white"/>
<path d="M320.963 234.885L328.656 234.885L328.656 225.208L320.963 225.208L320.963 234.885Z" fill="#CAD8EF"/>
<path d="M328.656 282.302L395.27 282.302L395.27 272.625L328.656 272.625L328.656 282.302Z" fill="white"/>
<path d="M320.963 282.302L328.656 282.302L328.656 272.625L320.963 272.625L320.963 282.302Z" fill="#CAD8EF"/>
<path d="M416.673 395.013H38.4805V409.558H416.673V395.013Z" fill="#0FC2C0"/>
<path d="M435.849 409.559H19.3022V426.275H435.849V409.559Z" fill="#34C1AD"/>
<path d="M395.482 386.468H59.6704V395.013H395.482V386.468Z" fill="#34C1AD"/>
<path d="M256.687 348.987H207.016V395.014H256.687V348.987Z" fill="white"/>
<path d="M232.801 348.987H230.903V395.014H232.801V348.987Z" fill="#CAD8EF"/>
</svg>
