<svg width="83" height="52" viewBox="0 0 83 52" fill="none" xmlns="http://www.w3.org/2000/svg">
<path d="M32.458 21.708C32.4346 22.0479 32.4111 22.4199 32.3877 22.8242C32.3701 23.2285 32.3525 23.6475 32.335 24.0811C32.3174 24.5088 32.2998 24.9424 32.2822 25.3818C32.2705 25.8154 32.2588 26.2344 32.2471 26.6387C32.2412 27.0371 32.2354 27.4121 32.2295 27.7637C32.2236 28.1094 32.2207 28.4111 32.2207 28.6689C32.2207 28.9971 32.2471 29.2607 32.2998 29.46C32.3525 29.6592 32.4258 29.8174 32.5195 29.9346C32.6191 30.0459 32.7393 30.1279 32.8799 30.1807C33.0205 30.2275 33.1787 30.2627 33.3545 30.2861L33.6973 30.3477L33.627 32.0527C33.3633 32.0293 33.0762 32.0059 32.7656 31.9824C32.4961 31.9648 32.1826 31.9502 31.8252 31.9385C31.4736 31.9209 31.0898 31.9121 30.6738 31.9121C30.2695 31.9121 29.8184 31.918 29.3203 31.9297C28.8281 31.9414 28.2656 31.9824 27.6328 32.0527L27.7031 30.3477C27.8555 30.3301 28.0137 30.3125 28.1777 30.2949C28.3184 30.2832 28.4736 30.2715 28.6436 30.2598C28.8193 30.2422 28.9922 30.2334 29.1621 30.2334C29.1855 29.8936 29.2061 29.5186 29.2236 29.1084C29.2412 28.6924 29.2588 28.2646 29.2764 27.8252C29.2998 27.3799 29.3174 26.9316 29.3291 26.4805C29.3467 26.0293 29.3613 25.5986 29.373 25.1885C29.3848 24.7725 29.3936 24.3857 29.3994 24.0283C29.4053 23.6709 29.4082 23.3633 29.4082 23.1055C29.4082 22.7832 29.3818 22.5225 29.3291 22.3232C29.2764 22.124 29.2002 21.9688 29.1006 21.8574C29.0068 21.7402 28.8896 21.6582 28.749 21.6113C28.6084 21.5586 28.4502 21.5176 28.2744 21.4883L27.9316 21.4355L28.0107 19.7217C28.2686 19.7451 28.5352 19.7656 28.8105 19.7832C29.0449 19.7949 29.2969 19.8066 29.5664 19.8184C29.8418 19.8301 30.1084 19.8359 30.3662 19.8359C30.7881 19.8359 31.1602 19.8301 31.4824 19.8184C31.8047 19.8008 32.1006 19.7861 32.3701 19.7744C32.6396 19.7568 32.8975 19.7422 33.1436 19.7305C33.3896 19.7129 33.6504 19.7041 33.9258 19.7041C34.6582 19.7041 35.3027 19.7891 35.8594 19.959C36.4219 20.123 36.8906 20.3633 37.2656 20.6797C37.6465 20.9961 37.9307 21.3799 38.1182 21.8311C38.3115 22.2822 38.4082 22.792 38.4082 23.3604C38.4082 23.8115 38.3438 24.2275 38.2148 24.6084C38.0918 24.9834 37.9189 25.3232 37.6963 25.6279C37.4795 25.9268 37.2246 26.1904 36.9316 26.4189C36.6445 26.6416 36.334 26.8291 36 26.9814C35.6719 27.1279 35.332 27.2393 34.9805 27.3154C34.6289 27.3916 34.2861 27.4297 33.9521 27.4297C33.6182 27.4297 33.2988 27.3945 32.9941 27.3242L33.082 25.4082C33.1934 25.4316 33.2754 25.4463 33.3281 25.4521C33.3809 25.4521 33.4424 25.4521 33.5127 25.4521C33.7529 25.4521 33.9756 25.4082 34.1807 25.3203C34.3857 25.2324 34.5645 25.1064 34.7168 24.9424C34.8691 24.7783 34.9893 24.5791 35.0771 24.3447C35.165 24.1045 35.209 23.835 35.209 23.5361C35.209 22.9326 35.0127 22.4697 34.6201 22.1475C34.2275 21.8252 33.6973 21.6641 33.0293 21.6641C32.9297 21.6641 32.8242 21.6699 32.7129 21.6816C32.6074 21.6875 32.5225 21.6963 32.458 21.708ZM41.502 28.9941C41.0859 28.8242 40.7197 28.6572 40.4033 28.4932C40.0869 28.3232 39.8232 28.1416 39.6123 27.9482C39.4014 27.7549 39.2432 27.541 39.1377 27.3066C39.0322 27.0664 38.9795 26.7881 38.9795 26.4717C38.9795 26.1729 39.0498 25.8711 39.1904 25.5664C39.3369 25.2559 39.5684 24.9746 39.8848 24.7227C40.207 24.4707 40.623 24.2656 41.1328 24.1074C41.6484 23.9434 42.2754 23.8613 43.0137 23.8613C43.4648 23.8613 43.8779 23.8994 44.2529 23.9756C44.6279 24.0459 44.9502 24.1543 45.2197 24.3008C45.4893 24.4473 45.6973 24.626 45.8438 24.8369C45.9961 25.0479 46.0723 25.2939 46.0723 25.5752C46.0723 25.9385 45.9639 26.2695 45.7471 26.5684C45.5361 26.8613 45.2373 27.0576 44.8506 27.1572C44.6807 27.0049 44.499 26.8408 44.3057 26.665C44.1123 26.4893 43.9102 26.3281 43.6992 26.1816C43.4883 26.0293 43.2686 25.9062 43.04 25.8125C42.8115 25.7129 42.5801 25.6631 42.3457 25.6631C42.1582 25.6631 42.0088 25.7041 41.8975 25.7861C41.792 25.8682 41.7393 25.9766 41.7393 26.1113C41.7393 26.1992 41.7832 26.2842 41.8711 26.3662C41.959 26.4424 42.0732 26.5156 42.2139 26.5859C42.3545 26.6562 42.5098 26.7236 42.6797 26.7881C42.8496 26.8525 43.0166 26.917 43.1807 26.9814L43.4092 27.0693C43.8838 27.2568 44.2852 27.4414 44.6133 27.623C44.9414 27.8047 45.208 27.998 45.4131 28.2031C45.6182 28.4023 45.7676 28.6191 45.8613 28.8535C45.9551 29.0879 46.002 29.3516 46.002 29.6445C46.002 29.9609 45.9199 30.2744 45.7559 30.585C45.5977 30.8955 45.3486 31.1709 45.0088 31.4111C44.6689 31.6514 44.2383 31.8477 43.7168 32C43.2012 32.1465 42.5889 32.2197 41.8799 32.2197C41.417 32.2197 40.9922 32.1816 40.6055 32.1055C40.2246 32.0293 39.8965 31.918 39.6211 31.7715C39.3516 31.6191 39.1406 31.4346 38.9883 31.2178C38.8418 30.9951 38.7686 30.7402 38.7686 30.4531C38.7686 30.0664 38.8799 29.7471 39.1025 29.4951C39.3311 29.2432 39.6445 29.0645 40.043 28.959C40.1484 29.0938 40.2803 29.2461 40.4385 29.416C40.5967 29.5801 40.7812 29.7383 40.9922 29.8906C41.2031 30.0371 41.4375 30.1631 41.6953 30.2686C41.9531 30.3682 42.2314 30.418 42.5303 30.418C42.7295 30.418 42.8994 30.3711 43.04 30.2773C43.1807 30.1836 43.251 30.0605 43.251 29.9082C43.251 29.8145 43.1924 29.7295 43.0752 29.6533C42.9639 29.5713 42.8203 29.4951 42.6445 29.4248C42.4746 29.3486 42.2871 29.2754 42.082 29.2051C41.877 29.1348 41.6836 29.0645 41.502 28.9941ZM49.9307 25.6104C50.1357 25.376 50.3525 25.1533 50.5811 24.9424C50.8096 24.7314 51.0527 24.5469 51.3105 24.3887C51.5742 24.2246 51.8555 24.0957 52.1543 24.002C52.4531 23.9082 52.7754 23.8613 53.1211 23.8613C53.4727 23.8613 53.792 23.9229 54.0791 24.0459C54.3662 24.1689 54.6094 24.3506 54.8086 24.5908C55.0137 24.8252 55.1689 25.1211 55.2744 25.4785C55.3857 25.8301 55.4414 26.2344 55.4414 26.6914C55.4414 26.8848 55.4326 27.1016 55.415 27.3418C55.3975 27.5762 55.377 27.8047 55.3535 28.0273C55.3359 28.25 55.3184 28.4521 55.3008 28.6338C55.2832 28.8154 55.2744 28.9473 55.2744 29.0293C55.2744 29.2461 55.2979 29.4482 55.3447 29.6357C55.3916 29.8232 55.4648 29.9873 55.5645 30.1279C55.6699 30.2686 55.7988 30.3799 55.9512 30.4619C56.1094 30.5381 56.2939 30.5762 56.5049 30.5762L56.4434 32H56.2676C55.8457 32 55.4619 32.0059 55.1162 32.0176C54.7764 32.0352 54.4512 32.0586 54.1406 32.0879C53.8359 32.1172 53.5371 32.1582 53.2441 32.2109C52.9512 32.2637 52.6436 32.3252 52.3213 32.3955C52.3975 31.9736 52.4678 31.5283 52.5322 31.0596C52.5967 30.5908 52.6494 30.1367 52.6904 29.6973C52.7373 29.252 52.7725 28.8418 52.7959 28.4668C52.8193 28.0859 52.8311 27.7754 52.8311 27.5352C52.8311 27.0488 52.7461 26.7061 52.5762 26.5068C52.4062 26.3076 52.1543 26.208 51.8203 26.208C51.5566 26.208 51.2988 26.252 51.0469 26.3398C50.7949 26.4277 50.5781 26.5273 50.3965 26.6387C50.3848 26.7676 50.3701 26.9434 50.3525 27.166C50.3408 27.3828 50.3262 27.6318 50.3086 27.9131C50.2969 28.1943 50.2881 28.502 50.2822 28.8359C50.2764 29.1641 50.2734 29.5068 50.2734 29.8643C50.2793 30.2158 50.2881 30.5732 50.2998 30.9365C50.3174 31.2998 50.3438 31.6543 50.3789 32C50.0449 32 49.7344 32.0117 49.4473 32.0352C49.166 32.0586 48.8994 32.0908 48.6475 32.1318C48.4014 32.1729 48.167 32.2168 47.9443 32.2637C47.7275 32.3105 47.5137 32.3545 47.3027 32.3955C47.3906 31.9033 47.4639 31.373 47.5225 30.8047C47.5869 30.2363 47.6396 29.6475 47.6807 29.0381C47.7275 28.4287 47.7656 27.8105 47.7949 27.1836C47.8242 26.5508 47.8447 25.9268 47.8564 25.3115C47.874 24.6904 47.8857 24.0898 47.8916 23.5098C47.8975 22.9297 47.9004 22.3818 47.9004 21.8662C47.9004 21.3154 47.8008 20.9053 47.6016 20.6357C47.4082 20.3662 47.0918 20.2109 46.6523 20.1699L46.7051 18.7549C47.0273 18.7432 47.3789 18.7197 47.7598 18.6846C48.1406 18.6436 48.5186 18.5967 48.8936 18.5439C49.2744 18.4854 49.6348 18.4209 49.9746 18.3506C50.3145 18.2803 50.6045 18.21 50.8447 18.1396L49.9307 25.6104Z" fill="#09F0E2"/>
<path d="M62.8066 29.8555V25.6191C62.8066 25.3145 62.7568 25.0537 62.6572 24.8369C62.5576 24.6143 62.4023 24.4414 62.1914 24.3184C61.9863 24.1953 61.7197 24.1338 61.3916 24.1338C61.1104 24.1338 60.8672 24.1836 60.6621 24.2832C60.457 24.377 60.2988 24.5146 60.1875 24.6963C60.0762 24.8721 60.0205 25.0801 60.0205 25.3203H57.4893C57.4893 24.916 57.583 24.5322 57.7705 24.1689C57.958 23.8057 58.2305 23.4863 58.5879 23.2109C58.9453 22.9297 59.3701 22.71 59.8623 22.5518C60.3604 22.3936 60.917 22.3145 61.5322 22.3145C62.2705 22.3145 62.9268 22.4375 63.501 22.6836C64.0752 22.9297 64.5264 23.2988 64.8545 23.791C65.1885 24.2832 65.3555 24.8984 65.3555 25.6367V29.7061C65.3555 30.2275 65.3877 30.6553 65.4521 30.9893C65.5166 31.3174 65.6104 31.6045 65.7334 31.8506V32H63.1758C63.0527 31.7422 62.959 31.4199 62.8945 31.0332C62.8359 30.6406 62.8066 30.248 62.8066 29.8555ZM63.1406 26.208L63.1582 27.6406H61.7432C61.4092 27.6406 61.1191 27.6787 60.873 27.7549C60.627 27.8311 60.4248 27.9395 60.2666 28.0801C60.1084 28.2148 59.9912 28.373 59.915 28.5547C59.8447 28.7363 59.8096 28.9355 59.8096 29.1523C59.8096 29.3691 59.8594 29.5654 59.959 29.7412C60.0586 29.9111 60.2021 30.0459 60.3896 30.1455C60.5771 30.2393 60.7969 30.2861 61.0488 30.2861C61.4297 30.2861 61.7607 30.21 62.042 30.0576C62.3232 29.9053 62.54 29.7178 62.6924 29.4951C62.8506 29.2725 62.9326 29.0615 62.9385 28.8623L63.6064 29.9346C63.5127 30.1748 63.3838 30.4238 63.2197 30.6816C63.0615 30.9395 62.8594 31.1826 62.6133 31.4111C62.3672 31.6338 62.0713 31.8184 61.7256 31.9648C61.3799 32.1055 60.9697 32.1758 60.4951 32.1758C59.8916 32.1758 59.3438 32.0557 58.8516 31.8154C58.3652 31.5693 57.9785 31.2324 57.6914 30.8047C57.4102 30.3711 57.2695 29.8789 57.2695 29.3281C57.2695 28.8301 57.3633 28.3877 57.5508 28.001C57.7383 27.6143 58.0137 27.2891 58.377 27.0254C58.7461 26.7559 59.2061 26.5537 59.7568 26.4189C60.3076 26.2783 60.9463 26.208 61.6729 26.208H63.1406ZM69.8379 24.5645V32H67.3066V22.4902H69.6885L69.8379 24.5645ZM72.7031 22.4287L72.6592 24.7754C72.5361 24.7578 72.3867 24.7432 72.2109 24.7314C72.041 24.7139 71.8857 24.7051 71.7451 24.7051C71.3877 24.7051 71.0771 24.752 70.8135 24.8457C70.5557 24.9336 70.3389 25.0654 70.1631 25.2412C69.9932 25.417 69.8643 25.6309 69.7764 25.8828C69.6943 26.1348 69.6475 26.4219 69.6357 26.7441L69.126 26.5859C69.126 25.9707 69.1875 25.4053 69.3105 24.8896C69.4336 24.3682 69.6123 23.9141 69.8467 23.5273C70.0869 23.1406 70.3799 22.8418 70.7256 22.6309C71.0713 22.4199 71.4668 22.3145 71.9121 22.3145C72.0527 22.3145 72.1963 22.3262 72.3428 22.3496C72.4893 22.3672 72.6094 22.3936 72.7031 22.4287ZM78.0996 32.1758C77.3613 32.1758 76.6992 32.0586 76.1133 31.8242C75.5273 31.584 75.0293 31.2529 74.6191 30.8311C74.2148 30.4092 73.9043 29.9199 73.6875 29.3633C73.4707 28.8008 73.3623 28.2031 73.3623 27.5703V27.2188C73.3623 26.498 73.4648 25.8389 73.6699 25.2412C73.875 24.6436 74.168 24.125 74.5488 23.6855C74.9355 23.2461 75.4043 22.9092 75.9551 22.6748C76.5059 22.4346 77.127 22.3145 77.8184 22.3145C78.4922 22.3145 79.0898 22.4258 79.6113 22.6484C80.1328 22.8711 80.5693 23.1875 80.9209 23.5977C81.2783 24.0078 81.5479 24.5 81.7295 25.0742C81.9111 25.6426 82.002 26.2754 82.002 26.9727V28.0273H74.4434V26.3398H79.5146V26.1465C79.5146 25.7949 79.4502 25.4814 79.3213 25.2061C79.1982 24.9248 79.0107 24.7021 78.7588 24.5381C78.5068 24.374 78.1846 24.292 77.792 24.292C77.458 24.292 77.1709 24.3652 76.9307 24.5117C76.6904 24.6582 76.4941 24.8633 76.3418 25.127C76.1953 25.3906 76.084 25.7012 76.0078 26.0586C75.9375 26.4102 75.9023 26.7969 75.9023 27.2188V27.5703C75.9023 27.9512 75.9551 28.3027 76.0605 28.625C76.1719 28.9473 76.3271 29.2256 76.5264 29.46C76.7314 29.6943 76.9775 29.876 77.2646 30.0049C77.5576 30.1338 77.8887 30.1982 78.2578 30.1982C78.7148 30.1982 79.1396 30.1104 79.5322 29.9346C79.9307 29.7529 80.2734 29.4805 80.5605 29.1172L81.791 30.4531C81.5918 30.7402 81.3193 31.0156 80.9736 31.2793C80.6338 31.543 80.2236 31.7598 79.7432 31.9297C79.2627 32.0938 78.7148 32.1758 78.0996 32.1758Z" fill="#878989"/>
<path fill-rule="evenodd" clip-rule="evenodd" d="M33.0909 40.1818C36.3544 40.1818 39 42.8274 39 46.0909V46.0909C39 49.3544 36.3544 52 33.0909 52L30.4646 52C27.2011 52 24.5556 49.3544 24.5556 46.0909V46.0909C24.5556 42.8274 27.2011 40.1818 30.4646 40.1818L33.0909 40.1818ZM29.3945 50.0795C30.5572 49.5163 30.5792 48.953 30.6027 48.3493V48.3492V48.3492C30.6088 48.1919 30.4539 48.0646 30.2969 48.0763C30.2482 48.0799 30.198 48.0821 30.1457 48.0834C30.0007 48.0869 29.8772 48.1846 29.8154 48.3157C29.4044 49.188 28.1781 49.4148 27.4445 49.4148H27.387C27.0199 49.4148 26.7223 49.1171 26.7223 48.75L26.7223 48.4463C26.7223 48.2469 26.8839 48.0852 27.0834 48.0852H27.1121C27.2957 48.0852 27.4445 48.234 27.4445 48.4176V48.4176C27.4445 48.6012 27.5931 48.7486 27.7757 48.7296C28.2969 48.6754 29.25 48.4773 29.25 47.7528C29.25 47.0139 28.2982 46.8226 27.7758 46.773C27.5931 46.7557 27.4445 46.9045 27.4445 47.0881V47.0881C27.4445 47.2716 27.2957 47.4205 27.1121 47.4205H27.0834C26.8839 47.4205 26.7223 47.2588 26.7223 47.0593V46.7557C26.7223 46.3885 27.0199 46.0909 27.387 46.0909H27.4445C28.0627 46.0909 29.0745 46.2519 29.5951 46.8246C29.8603 47.1163 30.279 47.4343 30.6627 47.3436V47.3436C30.8369 47.3024 30.8725 47.1816 31.0257 47.089C31.0936 47.048 31.1757 47.0216 31.2723 47.0216C31.477 47.0216 31.5528 47.1403 31.6595 47.3077C31.7603 47.4656 31.8886 47.6668 32.1791 47.8524C32.293 47.9251 32.4184 47.9752 32.5474 48.0152C32.9828 48.1503 34.0902 48.45 35.1532 48.3819C35.3303 48.3706 35.4611 48.219 35.4611 48.0416V47.8708C35.4611 47.7689 35.5443 47.6897 35.6417 47.7196V47.7196C35.6959 47.7362 35.75 47.7528 35.8223 47.7528C35.8525 47.7528 35.8795 47.7528 35.9047 47.7522C36.0396 47.749 36.1834 47.8402 36.1834 47.9752V47.9752C36.1834 48.0974 36.3002 48.1861 36.4125 48.1378C37.0375 47.8693 37.5556 47.2185 37.5556 46.0909C37.5556 44.9834 37.0559 44.3359 36.3972 44.014C36.2606 43.9472 36.1111 44.0543 36.1111 44.2064V44.2446C36.1111 44.3464 36.0279 44.4256 35.9306 44.3957V44.3957C35.8764 44.3791 35.8223 44.3625 35.75 44.3625V44.3625C35.5766 44.3625 35.3889 44.2312 35.3889 44.0577V44.0094C35.3889 43.8705 35.2831 43.7538 35.1443 43.7479C34.1361 43.705 33.075 43.9461 32.5757 44.0793C32.38 44.1315 32.1875 44.2042 32.0312 44.333C31.8502 44.4821 31.7512 44.6365 31.6676 44.7669C31.5467 44.9554 31.4579 45.0937 31.2 45.0937V45.0937C30.5367 45.0937 30.3198 44.1051 29.6565 44.0969C29.6416 44.0967 29.6265 44.0966 29.6111 44.0966V44.0966C29.091 44.0966 28.6264 44.4944 28.1418 44.6833C28.012 44.7339 27.8727 44.7614 27.7334 44.7614C27.2278 44.7614 26.7223 44.296 26.7223 43.7642C26.7223 43.2324 27.2278 42.767 27.8056 42.767C27.9596 42.767 28.1002 42.7917 28.2254 42.8373C28.7142 43.0154 29.1632 43.4318 29.6834 43.4318V43.4318V43.4318C30.1388 43.4318 30.5359 43.054 30.2359 42.7114C30.0536 42.5032 29.7872 42.2969 29.3945 42.1023V42.1023C27.7269 41.265 26 43.097 26 44.963L26 50.6114C26 50.6778 28.6 50.4784 29.3945 50.0795ZM35.75 45.0937C36.3278 45.0937 36.8334 45.5591 36.8334 46.0909C36.8334 46.6227 36.3278 47.0881 35.75 47.0881C35.1723 47.0881 34.6667 46.6227 34.6667 46.0909C34.6667 45.5591 35.1723 45.0937 35.75 45.0937ZM27.4445 43.7642C27.4445 43.9477 27.6063 44.0966 27.8056 44.0966C28.0049 44.0966 28.1667 43.9477 28.1667 43.7642C28.1667 43.5807 28.0049 43.4318 27.8056 43.4318C27.6063 43.4318 27.4445 43.5807 27.4445 43.7642Z" fill="#09E2F0"/>
<path fill-rule="evenodd" clip-rule="evenodd" d="M33.0909 0C36.3544 0 39 2.64559 39 5.90909V5.90909C39 9.17259 36.3544 11.8182 33.0909 11.8182L30.4646 11.8182C27.2011 11.8182 24.5556 9.17259 24.5556 5.90909V5.90909C24.5556 2.64559 27.2011 0 30.4646 0L33.0909 0ZM29.3945 9.89773C30.5572 9.33445 30.5792 8.77118 30.6027 8.16746V8.16743V8.16743C30.6088 8.01013 30.4539 7.88276 30.2969 7.89447C30.2482 7.8981 30.198 7.90026 30.1457 7.90154C30.0007 7.90508 29.8772 8.00276 29.8154 8.13391C29.4044 9.00621 28.1781 9.23296 27.4445 9.23296L27.387 9.23296C27.0199 9.23296 26.7223 8.93533 26.7223 8.56818L26.7223 8.26452C26.7223 8.06509 26.8839 7.90341 27.0834 7.90341H27.1121C27.2957 7.90341 27.4445 8.05223 27.4445 8.2358V8.2358C27.4445 8.41937 27.5931 8.56677 27.7757 8.5478C28.2969 8.49363 29.25 8.29552 29.25 7.57103C29.25 6.83209 28.2982 6.64074 27.7758 6.59118C27.5931 6.57385 27.4445 6.72268 27.4445 6.90625V6.90625C27.4445 7.08982 27.2957 7.23864 27.1121 7.23864H27.0834C26.8839 7.23864 26.7223 7.07696 26.7223 6.87753V6.57387C26.7223 6.20672 27.0199 5.90909 27.387 5.90909H27.4445C28.0627 5.90909 29.0745 6.07011 29.5951 6.64276C29.8603 6.93451 30.279 7.25247 30.6627 7.16176V7.16176C30.8369 7.12058 30.8725 6.99978 31.0257 6.90717C31.0936 6.86616 31.1757 6.83978 31.2723 6.83978C31.477 6.83978 31.5528 6.95852 31.6595 7.12587C31.7603 7.28379 31.8886 7.48499 32.1791 7.67054C32.293 7.7433 32.4184 7.79339 32.5474 7.83343C32.9828 7.96844 34.0902 8.26822 35.1532 8.20009C35.3303 8.18874 35.4611 8.03718 35.4611 7.85977V7.68894C35.4611 7.5871 35.5443 7.50792 35.6417 7.53779V7.53779C35.6959 7.55441 35.75 7.57103 35.8223 7.57103C35.8525 7.57103 35.8795 7.57103 35.9047 7.57042C36.0396 7.56716 36.1834 7.65842 36.1834 7.79335V7.79335C36.1834 7.91558 36.3002 8.00425 36.4125 7.956C37.0375 7.6875 37.5556 7.03673 37.5556 5.90909C37.5556 4.80163 37.0559 4.15413 36.3972 3.83215C36.2606 3.76538 36.1111 3.87253 36.1111 4.02457V4.06277C36.1111 4.16461 36.0279 4.24379 35.9306 4.21392V4.21392C35.8764 4.1973 35.8223 4.18069 35.75 4.18069V4.18069C35.5766 4.18069 35.3889 4.04935 35.3889 3.87589V3.82757C35.3889 3.68867 35.2831 3.57199 35.1443 3.56609C34.1361 3.52322 33.075 3.76429 32.5757 3.89751C32.38 3.94973 32.1875 4.02236 32.0312 4.15119C31.8502 4.30034 31.7512 4.45468 31.6676 4.58505C31.5467 4.77356 31.4579 4.91193 31.2 4.91193V4.91193C30.5367 4.91193 30.3198 3.92326 29.6565 3.91505C29.6416 3.91487 29.6265 3.91478 29.6111 3.91478V3.91478C29.091 3.91478 28.6264 4.31257 28.1418 4.50149C28.012 4.55205 27.8727 4.57955 27.7334 4.57955C27.2278 4.57955 26.7223 4.11421 26.7223 3.58239C26.7223 3.05057 27.2278 2.58523 27.8056 2.58523C27.9596 2.58523 28.1002 2.60991 28.2254 2.65552C28.7142 2.83361 29.1632 3.25 29.6834 3.25V3.25V3.25C30.1388 3.25 30.5359 2.87219 30.2359 2.52957C30.0536 2.32139 29.7872 2.11511 29.3945 1.92046V1.92046C27.7269 1.08321 26 2.91517 26 4.78116L26 10.4295C26 10.496 28.6 10.2966 29.3945 9.89773ZM35.75 4.91193C36.3278 4.91193 36.8334 5.37728 36.8334 5.90909C36.8334 6.44091 36.3278 6.90625 35.75 6.90625C35.1723 6.90625 34.6667 6.44091 34.6667 5.90909C34.6667 5.37728 35.1723 4.91193 35.75 4.91193ZM27.4445 3.58239C27.4445 3.76587 27.6063 3.91478 27.8056 3.91478C28.0049 3.91478 28.1667 3.76587 28.1667 3.58239C28.1667 3.39891 28.0049 3.25 27.8056 3.25C27.6063 3.25 27.4445 3.39891 27.4445 3.58239Z" fill="#878989"/>
<g clip-path="url(#clip0_0_1)">
<path d="M23.3901 38.3823C23.6042 38.0425 23.6902 37.6477 23.6347 37.2588C23.5793 36.8699 23.3854 36.5085 23.0831 36.2304L22.06 35.2948C21.7558 35.0183 21.3606 34.8411 20.9353 34.7904C20.51 34.7396 20.0783 34.8182 19.7067 35.0141L19.2975 34.6398C19.5116 34.3 19.5976 33.9053 19.5421 33.5164C19.4867 33.1275 19.2928 32.7661 18.9905 32.4879L17.9674 31.5523C17.6632 31.2759 17.268 31.0987 16.8427 31.0479C16.4174 30.9972 15.9857 31.0758 15.6142 31.2716L14.3864 30.1489L13.6651 30.8085L14.8928 31.9312C14.6761 32.2704 14.5887 32.6657 14.6442 33.0552C14.6998 33.4446 14.8952 33.8062 15.1998 34.0831L16.2229 35.0187C16.5271 35.2952 16.9224 35.4724 17.3476 35.5231C17.7729 35.5739 18.2046 35.4953 18.5762 35.2994L18.9854 35.6737C18.7687 36.0128 18.6813 36.4081 18.7368 36.7976C18.7924 37.1871 18.9878 37.5486 19.2924 37.8256L20.3155 38.7612C20.6197 39.0376 21.0149 39.2148 21.4402 39.2656C21.8655 39.3163 22.2972 39.2377 22.6688 39.0419L23.8965 40.1646L24.6179 39.505L23.3901 38.3823ZM16.9442 34.3591L15.9211 33.4235C15.8117 33.3226 15.7315 33.1983 15.6877 33.0619C15.6439 32.9255 15.638 32.7813 15.6704 32.6423L16.2229 33.1475L16.9442 32.4879L16.3917 31.9827C16.5438 31.9531 16.7015 31.9585 16.8506 31.9985C16.9998 32.0385 17.1357 32.1119 17.2461 32.2119L18.2692 33.1475C18.3794 33.248 18.4602 33.3722 18.504 33.5088C18.5478 33.6453 18.5533 33.7898 18.5199 33.9288L17.9674 33.4235L17.2461 34.0831L17.7986 34.5884C17.6466 34.618 17.4889 34.6126 17.3397 34.5726C17.1906 34.5326 17.0546 34.4592 16.9442 34.3591V34.3591ZM21.0368 38.1016L20.0137 37.166C19.9043 37.065 19.8241 36.9407 19.7803 36.8043C19.7365 36.668 19.7306 36.5237 19.763 36.3847L20.3155 36.89L21.0368 36.2304L20.4843 35.7251C20.6364 35.6955 20.7941 35.7009 20.9432 35.7409C21.0924 35.7809 21.2283 35.8543 21.3387 35.9544L22.3618 36.89C22.472 36.9904 22.5528 37.1147 22.5966 37.2512C22.6404 37.3878 22.6459 37.5322 22.6125 37.6712L22.06 37.166L21.3387 37.8256L21.8912 38.3308C21.7391 38.3604 21.5814 38.355 21.4323 38.315C21.2831 38.275 21.1472 38.2016 21.0368 38.1016V38.1016Z" fill="black"/>
</g>
<g clip-path="url(#clip1_0_1)">
<path d="M23.8005 12.1808C23.3852 12.0056 22.9027 11.9353 22.4274 11.9807C21.9521 12.0261 21.5104 12.1847 21.1704 12.432L20.0269 13.2691C19.689 13.518 19.4724 13.8414 19.4104 14.1893C19.3484 14.5373 19.4445 14.8905 19.6838 15.1945L19.2264 15.5293C18.8111 15.3541 18.3287 15.2838 17.8534 15.3292C17.3781 15.3746 16.9364 15.5331 16.5963 15.7805L15.4528 16.6176C15.115 16.8665 14.8983 17.1898 14.8363 17.5378C14.7744 17.8857 14.8704 18.2389 15.1098 18.543L13.7375 19.5475L14.5437 20.1377L15.916 19.1331C16.3304 19.3105 16.8136 19.382 17.2896 19.3366C17.7656 19.2911 18.2076 19.1312 18.546 18.882L19.6896 18.0449C20.0274 17.796 20.244 17.4726 20.306 17.1247C20.368 16.7767 20.272 16.4235 20.0326 16.1195L20.49 15.7847C20.9045 15.962 21.3877 16.0335 21.8637 15.9881C22.3397 15.9426 22.7816 15.7827 23.1201 15.5335L24.2636 14.6964C24.6015 14.4475 24.8181 14.1241 24.8801 13.7762C24.9421 13.4282 24.846 13.075 24.6067 12.771L25.9789 11.7665L25.1727 11.1763L23.8005 12.1808ZM18.8834 17.4547L17.7399 18.2918C17.6165 18.3814 17.4646 18.447 17.2979 18.4828C17.1312 18.5186 16.9549 18.5235 16.785 18.4969L17.4025 18.0449L16.5963 17.4547L15.9788 17.9068C15.9426 17.7824 15.9492 17.6533 15.9982 17.5313C16.0471 17.4093 16.1367 17.2981 16.259 17.2078L17.4025 16.3706C17.5253 16.2805 17.6772 16.2144 17.8441 16.1786C18.0109 16.1427 18.1875 16.1382 18.3574 16.1655L17.7399 16.6176L18.546 17.2078L19.1635 16.7557C19.1998 16.8801 19.1931 17.0091 19.1442 17.1312C19.0953 17.2532 19.0057 17.3644 18.8834 17.4547V17.4547ZM23.4575 14.1062L22.3139 14.9433C22.1906 15.0329 22.0387 15.0985 21.872 15.1343C21.7053 15.1701 21.529 15.175 21.3591 15.1484L21.9766 14.6964L21.1704 14.1062L20.5529 14.5583C20.5167 14.4339 20.5233 14.3049 20.5722 14.1828C20.6211 14.0608 20.7108 13.9496 20.8331 13.8593L21.9766 13.0222C22.0994 12.932 22.2512 12.8659 22.4181 12.8301C22.585 12.7942 22.7616 12.7898 22.9314 12.8171L22.3139 13.2691L23.1201 13.8593L23.7376 13.4072C23.7739 13.5316 23.7672 13.6606 23.7183 13.7827C23.6694 13.9047 23.5798 14.0159 23.4575 14.1062V14.1062Z" fill="black"/>
</g>
<path fill-rule="evenodd" clip-rule="evenodd" d="M8.53531 19.5C11.7988 19.5 14.4444 22.1456 14.4444 25.4091V25.4091C14.4444 28.6726 11.7988 31.3182 8.53531 31.3182H5.90904C2.64554 31.3182 -4.673e-05 28.6726 -4.673e-05 25.4091V25.4091C-4.673e-05 22.1456 2.64554 19.5 5.90904 19.5L8.53531 19.5ZM4.83889 29.3977C6.0016 28.8345 6.02357 28.2712 6.04711 27.6675V27.6675C6.05324 27.5101 5.89829 27.3828 5.74129 27.3945C5.69263 27.3981 5.64244 27.4003 5.59008 27.4015C5.44514 27.4051 5.32158 27.5028 5.25979 27.6339C4.84883 28.5062 3.62251 28.733 2.88889 28.733L2.83144 28.733C2.4643 28.733 2.16667 28.4353 2.16667 28.0682L2.16667 27.7645C2.16667 27.5651 2.32834 27.4034 2.52778 27.4034H2.5565C2.74007 27.4034 2.88889 27.5522 2.88889 27.7358V27.7358C2.88889 27.9194 3.03748 28.0668 3.22006 28.0478C3.74132 27.9936 4.69444 27.7955 4.69444 27.071C4.69444 26.3321 3.74261 26.1407 3.22024 26.0912C3.03749 26.0738 2.88889 26.2227 2.88889 26.4063V26.4063C2.88889 26.5898 2.74007 26.7386 2.5565 26.7386H2.52778C2.32834 26.7386 2.16667 26.577 2.16667 26.3775L2.16667 26.0739C2.16667 25.7067 2.4643 25.4091 2.83144 25.4091H2.88889C3.5071 25.4091 4.51892 25.5701 5.0395 26.1428C5.30473 26.4345 5.72339 26.7525 6.1071 26.6618V26.6618C6.28131 26.6206 6.31691 26.4998 6.47011 26.4072C6.53796 26.3662 6.62015 26.3398 6.71667 26.3398C6.92143 26.3398 6.99718 26.4585 7.10395 26.6259C7.20469 26.7838 7.33305 26.985 7.62348 27.1705C7.73737 27.2433 7.86278 27.2934 7.99186 27.3334C8.42716 27.4684 9.53457 27.7682 10.5976 27.7001C10.7747 27.6887 10.9056 27.5372 10.9056 27.3598V27.1889C10.9056 27.0871 10.9888 27.0079 11.0861 27.0378V27.0378C11.1403 27.0544 11.1944 27.071 11.2667 27.071C11.2969 27.071 11.3239 27.071 11.3492 27.0704C11.484 27.0672 11.6278 27.1584 11.6278 27.2934V27.2934C11.6278 27.4156 11.7446 27.5042 11.8569 27.456C12.4819 27.1875 13 26.5367 13 25.4091C13 24.3016 12.5003 23.6541 11.8416 23.3322C11.7051 23.2654 11.5556 23.3725 11.5556 23.5246V23.5628C11.5556 23.6646 11.4724 23.7438 11.375 23.7139V23.7139C11.3208 23.6973 11.2667 23.6807 11.1944 23.6807V23.6807C11.021 23.6807 10.8333 23.5493 10.8333 23.3759V23.3276C10.8333 23.1887 10.7275 23.072 10.5888 23.0661C9.58053 23.0232 8.51937 23.2643 8.02008 23.3975C7.82439 23.4497 7.63186 23.5224 7.47557 23.6512C7.29462 23.8003 7.19562 23.9547 7.11199 24.085C6.99107 24.2736 6.90232 24.4119 6.64444 24.4119V24.4119C5.98113 24.4119 5.76419 23.4233 5.10093 23.4151C5.08601 23.4149 5.07088 23.4148 5.05556 23.4148V23.4148C4.53538 23.4148 4.07086 23.8126 3.58619 24.0015C3.45646 24.0521 3.31712 24.0795 3.17778 24.0795C2.67222 24.0795 2.16667 23.6142 2.16667 23.0824C2.16667 22.5506 2.67222 22.0852 3.25 22.0852C3.40403 22.0852 3.54466 22.1099 3.66983 22.1555C4.15858 22.3336 4.6076 22.75 5.12778 22.75V22.75V22.75C5.58317 22.75 5.98027 22.3722 5.68027 22.0296C5.49799 21.8214 5.23162 21.6151 4.83889 21.4205V21.4205C3.17128 20.5832 1.44444 22.4152 1.44444 24.2812L1.44444 29.9295C1.44444 29.996 4.04444 29.7966 4.83889 29.3977ZM11.1944 24.4119C11.7722 24.4119 12.2778 24.8773 12.2778 25.4091C12.2778 25.9409 11.7722 26.4063 11.1944 26.4063C10.6167 26.4063 10.1111 25.9409 10.1111 25.4091C10.1111 24.8773 10.6167 24.4119 11.1944 24.4119ZM2.88889 23.0824C2.88889 23.2659 3.05067 23.4148 3.25 23.4148C3.44933 23.4148 3.61111 23.2659 3.61111 23.0824C3.61111 22.8989 3.44933 22.75 3.25 22.75C3.05067 22.75 2.88889 22.8989 2.88889 23.0824Z" fill="#09F0E2"/>
<defs>
<clipPath id="clip0_0_1">
<rect width="11.2273" height="12.2778" fill="white" transform="translate(25.2778 29.5455) rotate(90)"/>
</clipPath>
<clipPath id="clip1_0_1">
<rect width="13.7222" height="10.0455" fill="white" transform="translate(13 10.6364)"/>
</clipPath>
</defs>
</svg>
