<svg width="701" height="414" viewBox="0 0 701 414" fill="none" xmlns="http://www.w3.org/2000/svg">
<path d="M268.297 196.464C293.931 149.977 342.826 114.283 394.586 117.722C356.406 160.526 334.143 215.872 331.735 273.97C330.885 296.379 332.203 321.395 317.771 338.175C308.791 348.616 295.065 353.672 281.569 354.733C268.072 355.793 254.579 353.279 241.263 350.776L238.033 351.799C236.803 298.34 242.664 242.951 268.297 196.464Z" fill="#F0F0F0"/>
<path d="M394.663 118.841C356.387 137.837 323.75 169.563 303.715 208.255C299.384 216.62 295.696 225.495 294.087 234.878C292.478 244.265 293.602 253.201 296.712 262.117C299.555 270.268 303.379 278.266 304.251 286.988C305.17 296.181 301.889 304.776 295.983 311.598C288.757 319.945 279.053 325.117 269.392 329.835C258.666 335.074 247.445 340.34 239.848 350.117C238.927 351.301 237.198 349.759 238.117 348.577C251.335 331.566 273.96 328.369 289.649 314.666C296.97 308.273 302.467 299.565 302.12 289.363C301.816 280.442 297.88 272.19 294.932 263.963C291.837 255.324 290.293 246.638 291.403 237.428C292.539 228.006 295.898 218.964 300.003 210.522C309.261 191.481 321.931 174.001 336.445 158.89C353.125 141.521 372.565 127.222 393.923 116.611C395.245 115.954 395.977 118.189 394.663 118.841Z" fill="white"/>
<path d="M309.584 195.324C303.716 190.901 299.564 184.471 297.87 177.184C296.176 169.896 297.05 162.225 300.336 155.54C301.005 154.19 303.072 155.199 302.402 156.551C299.331 162.77 298.518 169.915 300.109 176.698C301.699 183.481 305.59 189.455 311.078 193.54C312.269 194.43 310.769 196.209 309.584 195.324Z" fill="white"/>
<path d="M294.742 258.18C309.446 255.965 322.799 248.118 332.14 236.204C333.064 235.023 334.794 236.564 333.87 237.744C324.128 250.123 310.215 258.26 294.91 260.53C293.451 260.746 293.291 258.394 294.742 258.18V258.18Z" fill="white"/>
<path d="M354.255 144.421C356.179 146.62 358.603 148.292 361.309 149.287C364.016 150.282 366.919 150.568 369.759 150.12C371.214 149.885 371.372 152.237 369.926 152.47C366.786 152.95 363.58 152.63 360.588 151.538C357.596 150.446 354.908 148.615 352.761 146.205C352.54 145.996 352.405 145.707 352.383 145.398C352.361 145.09 352.454 144.784 352.642 144.543C352.841 144.308 353.122 144.163 353.424 144.14C353.726 144.118 354.024 144.218 354.255 144.421Z" fill="white"/>
<path d="M497.573 264.371C496.668 264.544 495.763 264.717 494.85 264.908C482.697 267.298 470.751 270.702 459.132 275.087C458.229 275.411 457.318 275.754 456.425 276.104C428.541 286.975 402.858 303.089 380.68 323.626C371.862 331.806 363.661 340.667 356.147 350.13C345.77 363.2 335.529 378.222 321.969 386.744C320.564 387.649 319.106 388.464 317.604 389.184L239.493 355.782C239.352 355.614 239.204 355.464 239.062 355.296L235.884 354.11C236.239 353.594 236.617 353.066 236.972 352.55C237.176 352.25 237.398 351.957 237.602 351.657C237.744 351.459 237.887 351.262 238.004 351.075C238.051 351.009 238.098 350.944 238.138 350.896C238.255 350.709 238.383 350.548 238.493 350.38C240.6 347.426 242.731 344.483 244.885 341.55C244.893 341.532 244.893 341.532 244.918 341.521C261.392 319.215 279.816 298.13 300.759 280.6C301.39 280.072 302.027 279.526 302.692 279.014C312.175 271.166 322.264 264.13 332.859 257.977C338.671 254.627 344.643 251.582 350.754 248.854C366.555 241.838 383.329 237.428 400.46 235.785C434.611 232.516 469.396 240.543 495.588 262.661C496.258 263.227 496.911 263.786 497.573 264.371Z" fill="#F0F0F0"/>
<path d="M496.986 265.318C455.331 256.727 410.745 261.801 372.152 280.259C363.808 284.249 355.681 289.046 348.917 295.539C342.15 302.036 337.829 309.868 335.105 318.917C332.615 327.19 330.997 335.95 326.6 343.455C321.965 351.365 314.326 356.192 305.626 357.973C294.982 360.152 284.213 358.258 273.745 356.029C262.121 353.554 250.086 350.794 238.311 353.884C236.884 354.259 236.404 351.955 237.828 351.581C258.316 346.203 278.248 357.694 298.777 356.491C308.357 355.931 317.83 352.39 323.511 344.029C328.479 336.717 330.155 327.686 332.606 319.287C335.179 310.468 339.019 302.574 345.285 295.909C351.693 289.091 359.656 283.957 367.864 279.764C386.375 270.308 406.7 264.215 427.113 261.159C450.575 257.644 474.448 258.293 497.698 263.078C499.137 263.375 498.416 265.613 496.986 265.318V265.318Z" fill="white"/>
<path d="M384.389 273.577C382.287 266.403 382.727 258.692 385.631 251.822C388.534 244.952 393.712 239.369 400.239 236.071C401.562 235.408 402.623 237.497 401.299 238.16C395.215 241.22 390.392 246.42 387.701 252.824C385.01 259.227 384.628 266.411 386.624 273.08C387.056 274.529 384.819 275.018 384.389 273.577Z" fill="white"/>
<path d="M335.832 314.551C348.865 321.909 364.11 323.932 378.525 320.217C379.953 319.848 380.434 322.152 379.008 322.521C363.999 326.358 348.139 324.219 334.593 316.532C333.302 315.798 334.548 313.821 335.832 314.551Z" fill="white"/>
<path d="M449.784 260.661C450.036 263.611 450.995 266.451 452.575 268.925C454.155 271.398 456.306 273.429 458.835 274.834C460.134 275.551 458.886 277.526 457.596 276.815C454.809 275.249 452.436 273.003 450.684 270.274C448.933 267.545 447.856 264.415 447.549 261.158C447.495 260.853 447.556 260.539 447.718 260.279C447.881 260.019 448.134 259.832 448.425 259.757C448.721 259.693 449.03 259.752 449.284 259.921C449.539 260.09 449.718 260.356 449.784 260.661Z" fill="white"/>
<path d="M348.777 319.478C337.838 264.948 324.164 246.767 324.164 246.767L318.94 242.591L312.658 237.56L312.688 236.913L311.198 236.391L310.848 236.111L310.275 235.657L310.183 235.759L309.988 235.967L281.561 226.005L245.496 213.376L228.796 190.997C226.076 187.352 222.574 184.407 218.565 182.391C214.556 180.375 210.149 179.343 205.689 179.377L152.354 179.784C145.142 179.839 138.211 182.673 132.924 187.73L97.8676 221.253L43.2431 248.149L43.1509 248.054L42.5773 248.476L34.1373 252.637L34.4856 254.506L29.2617 258.392C29.2617 258.392 15.5877 275.309 4.64845 326.048C1.86562 338.958 0.495817 366.653 0.00138944 400.78C-0.0234456 402.507 0.28487 404.221 0.908401 405.823C1.53193 407.426 2.45824 408.885 3.63347 410.115C4.8087 411.345 6.2094 412.322 7.75413 412.989C9.29886 413.656 10.9568 413.999 12.6315 414H304.392L340.807 414C342.481 413.999 344.138 413.656 345.681 412.989C347.225 412.323 348.625 411.347 349.8 410.119C350.975 408.89 351.902 407.433 352.526 405.832C353.151 404.232 353.46 402.519 353.438 400.794C352.955 363.658 351.585 333.479 348.777 319.478Z" fill="#13969D"/>
<path d="M339.033 131.862C327.681 131.862 316.795 136.511 308.769 144.786C300.742 153.061 296.233 164.284 296.233 175.987C296.233 187.689 300.742 198.912 308.769 207.187C316.795 215.462 327.681 220.111 339.033 220.111H657.992C669.344 220.111 680.23 215.462 688.256 207.187C696.283 198.912 700.792 187.689 700.792 175.987C700.792 164.284 696.283 153.061 688.256 144.786C680.23 136.511 669.344 131.862 657.992 131.862H339.033Z" fill="#E5E5E5"/>
<path d="M339.033 140.792C329.979 140.792 321.296 144.5 314.894 151.101C308.491 157.701 304.895 166.653 304.895 175.987C304.895 185.321 308.491 194.273 314.894 200.873C321.296 207.473 329.979 211.181 339.033 211.181H657.992C667.046 211.181 675.729 207.473 682.131 200.873C688.534 194.273 692.13 185.321 692.13 175.987C692.13 166.653 688.534 157.701 682.131 151.101C675.729 144.5 667.046 140.792 657.992 140.792H339.033Z" fill="white"/>
<path d="M187.397 174.934C225.987 174.934 257.271 142.682 257.271 102.897C257.271 63.1123 225.987 30.8604 187.397 30.8604C148.806 30.8604 117.523 63.1123 117.523 102.897C117.523 142.682 148.806 174.934 187.397 174.934Z" fill="#DDBCC1"/>
<path d="M169.522 155.193C169.223 154.515 168.926 153.836 168.629 153.153C168.743 153.157 168.856 153.174 168.971 153.177L169.522 155.193Z" fill="#2F2E41"/>
<path d="M115.58 34.1359C119.114 31.2295 123.244 28.5553 127.762 28.7056C132.281 28.8557 136.863 33.0629 135.927 37.6225C144.226 22.4731 157.436 10.8214 173.238 4.71274C189.04 -1.39595 206.424 -1.57132 222.339 4.21743C233.569 8.30209 244.582 16.4738 247.161 28.4592C247.824 31.5359 247.966 34.9095 249.829 37.4079C252.179 40.5578 256.674 41.2704 260.375 40.1623C260.412 40.1512 260.449 40.14 260.486 40.1286C261.111 39.9085 261.786 39.8869 262.423 40.0665C263.061 40.2462 263.631 40.6188 264.061 41.1363C264.491 41.6538 264.76 42.2923 264.834 42.9692C264.907 43.6462 264.782 44.3304 264.475 44.9333L261.298 51.0428C265.303 51.9632 269.465 51.872 273.429 50.7768C274.087 50.5988 274.783 50.6351 275.421 50.8809C276.058 51.1266 276.607 51.5697 276.99 52.1494C277.374 52.7291 277.574 53.417 277.564 54.1188C277.553 54.8205 277.332 55.5017 276.932 56.0689C266.454 70.899 248.95 80.4756 231.087 80.363C218.391 80.2832 205.565 75.7723 193.209 78.7822C188.429 79.9466 183.962 82.1995 180.137 85.3756C176.312 88.5518 173.225 92.5706 171.102 97.1371C168.98 101.704 167.876 106.702 167.872 111.766C167.868 116.829 168.964 121.83 171.079 126.4C167.283 122.12 159.945 123.133 156.062 127.33C152.18 131.526 151.175 137.79 151.566 143.576C152.164 152.425 155.527 160.763 159.072 168.878C129.349 167.913 101.235 146.417 91.7718 117.343C82.269 88.1478 92.2282 53.3405 115.58 34.1359Z" fill="#2F2E41"/>
<path opacity="0.2" d="M68.7743 303.015L88.3724 412.944L100.132 414L68.7743 303.015Z" fill="black"/>
<path opacity="0.2" d="M284.652 294.724L265.053 412.865L253.294 414L284.652 294.724Z" fill="black"/>
<path d="M409.487 197.031H346.026C345.824 197.033 345.624 196.993 345.437 196.914C345.251 196.836 345.081 196.72 344.938 196.573C344.795 196.427 344.681 196.253 344.604 196.061C344.526 195.869 344.487 195.663 344.487 195.455C344.487 195.247 344.526 195.042 344.604 194.85C344.681 194.658 344.795 194.484 344.938 194.337C345.081 194.191 345.251 194.075 345.437 193.996C345.624 193.918 345.824 193.878 346.026 193.879H409.487C409.89 193.882 410.276 194.05 410.561 194.345C410.845 194.64 411.005 195.039 411.005 195.455C411.005 195.871 410.845 196.271 410.561 196.566C410.276 196.861 409.89 197.028 409.487 197.031Z" fill="#0FC2C0"/>
<path d="M489.991 197.556H426.53C426.328 197.557 426.128 197.517 425.942 197.439C425.755 197.36 425.585 197.244 425.442 197.098C425.299 196.951 425.186 196.777 425.108 196.585C425.031 196.393 424.991 196.188 424.991 195.98C424.991 195.772 425.031 195.566 425.108 195.374C425.186 195.182 425.299 195.008 425.442 194.862C425.585 194.715 425.755 194.599 425.942 194.521C426.128 194.442 426.328 194.402 426.53 194.404H489.991C490.192 194.402 490.392 194.442 490.579 194.521C490.766 194.599 490.935 194.715 491.078 194.862C491.221 195.008 491.335 195.182 491.413 195.374C491.49 195.566 491.53 195.772 491.53 195.98C491.53 196.188 491.49 196.393 491.413 196.585C491.335 196.777 491.221 196.951 491.078 197.098C490.935 197.244 490.766 197.36 490.579 197.439C490.392 197.517 490.192 197.557 489.991 197.556Z" fill="#0FC2C0"/>
<path d="M570.495 198.081H507.034C506.63 198.079 506.244 197.911 505.96 197.616C505.675 197.321 505.516 196.922 505.516 196.506C505.516 196.089 505.675 195.69 505.96 195.395C506.244 195.1 506.63 194.933 507.034 194.93H570.495C570.697 194.928 570.897 194.968 571.083 195.047C571.27 195.125 571.44 195.241 571.583 195.387C571.726 195.534 571.839 195.708 571.917 195.9C571.994 196.092 572.034 196.298 572.034 196.506C572.034 196.713 571.994 196.919 571.917 197.111C571.839 197.303 571.726 197.477 571.583 197.624C571.44 197.77 571.27 197.886 571.083 197.965C570.897 198.043 570.697 198.083 570.495 198.081H570.495Z" fill="#0FC2C0"/>
<path d="M650.999 198.607H587.538C587.135 198.604 586.749 198.437 586.464 198.141C586.18 197.846 586.02 197.447 586.02 197.031C586.02 196.615 586.18 196.216 586.464 195.92C586.749 195.625 587.135 195.458 587.538 195.455H650.999C651.403 195.458 651.789 195.625 652.074 195.92C652.358 196.216 652.518 196.615 652.518 197.031C652.518 197.447 652.358 197.846 652.074 198.141C651.789 198.437 651.403 198.604 650.999 198.607Z" fill="#0FC2C0"/>
<path d="M377.617 182.528C384.131 182.528 389.411 177.083 389.411 170.368C389.411 163.652 384.131 158.208 377.617 158.208C371.102 158.208 365.822 163.652 365.822 170.368C365.822 177.083 371.102 182.528 377.617 182.528Z" fill="#0FC2C0"/>
<path d="M458.607 182.528C465.121 182.528 470.402 177.083 470.402 170.368C470.402 163.652 465.121 158.208 458.607 158.208C452.093 158.208 446.812 163.652 446.812 170.368C446.812 177.083 452.093 182.528 458.607 182.528Z" fill="#0FC2C0"/>
<path d="M539.597 182.528C546.112 182.528 551.392 177.083 551.392 170.368C551.392 163.652 546.112 158.208 539.597 158.208C533.083 158.208 527.803 163.652 527.803 170.368C527.803 177.083 533.083 182.528 539.597 182.528Z" fill="#0FC2C0"/>
<path d="M620.588 182.528C627.102 182.528 632.383 177.083 632.383 170.368C632.383 163.652 627.102 158.208 620.588 158.208C614.074 158.208 608.793 163.652 608.793 170.368C608.793 177.083 614.074 182.528 620.588 182.528Z" fill="#0FC2C0"/>
<path d="M339.241 25.9409C327.889 25.9409 317.003 30.5897 308.977 38.8646C300.95 47.1395 296.441 58.3627 296.441 70.0652C296.441 81.7677 300.95 92.9909 308.977 101.266C317.003 109.541 327.889 114.189 339.241 114.189H658.2C669.552 114.189 680.438 109.541 688.464 101.266C696.491 92.9909 701 81.7677 701 70.0652C701 58.3627 696.491 47.1395 688.464 38.8646C680.438 30.5897 669.552 25.9409 658.2 25.9409H339.241Z" fill="#E5E5E5"/>
<path d="M339.241 34.8711C330.187 34.8711 321.503 38.5791 315.101 45.1793C308.699 51.7795 305.103 60.7313 305.103 70.0655C305.103 79.3996 308.699 88.3514 315.101 94.9516C321.503 101.552 330.187 105.26 339.241 105.26H658.2C667.254 105.26 675.937 101.552 682.339 94.9516C688.741 88.3514 692.338 79.3996 692.338 70.0655C692.338 60.7313 688.741 51.7795 682.339 45.1793C675.937 38.5791 667.254 34.8711 658.2 34.8711H339.241Z" fill="white"/>
<path d="M409.695 91.1098H346.234C346.032 91.1112 345.832 91.0715 345.645 90.9929C345.459 90.9144 345.289 90.7985 345.146 90.652C345.003 90.5056 344.889 90.3314 344.812 90.1395C344.734 89.9476 344.695 89.7418 344.695 89.5339C344.695 89.326 344.734 89.1203 344.812 88.9284C344.889 88.7365 345.003 88.5623 345.146 88.4158C345.289 88.2693 345.459 88.1535 345.645 88.0749C345.832 87.9964 346.032 87.9566 346.234 87.958H409.695C410.098 87.9609 410.484 88.1281 410.769 88.4234C411.053 88.7186 411.213 89.1178 411.213 89.5339C411.213 89.95 411.053 90.3492 410.769 90.6444C410.484 90.9397 410.098 91.1069 409.695 91.1098Z" fill="#0FC2C0"/>
<path d="M490.199 91.6347H426.738C426.536 91.6361 426.336 91.5964 426.15 91.5178C425.963 91.4393 425.793 91.3234 425.65 91.1769C425.507 91.0305 425.394 90.8563 425.316 90.6644C425.239 90.4725 425.199 90.2667 425.199 90.0588C425.199 89.851 425.239 89.6452 425.316 89.4533C425.394 89.2614 425.507 89.0872 425.65 88.9407C425.793 88.7942 425.963 88.6784 426.15 88.5998C426.336 88.5213 426.536 88.4815 426.738 88.4829H490.199C490.4 88.4815 490.6 88.5213 490.787 88.5998C490.974 88.6784 491.143 88.7942 491.286 88.9407C491.43 89.0872 491.543 89.2614 491.621 89.4533C491.698 89.6452 491.738 89.851 491.738 90.0588C491.738 90.2667 491.698 90.4725 491.621 90.6644C491.543 90.8563 491.43 91.0305 491.286 91.1769C491.143 91.3234 490.974 91.4393 490.787 91.5178C490.6 91.5964 490.4 91.6361 490.199 91.6347Z" fill="#0FC2C0"/>
<path d="M570.703 92.1601H507.242C506.838 92.1572 506.452 91.99 506.168 91.6947C505.883 91.3995 505.724 91.0003 505.724 90.5842C505.724 90.1681 505.883 89.7689 506.168 89.4737C506.452 89.1784 506.838 89.0112 507.242 89.0083H570.703C570.905 89.0069 571.105 89.0466 571.291 89.1252C571.478 89.2038 571.648 89.3196 571.791 89.4661C571.934 89.6126 572.047 89.7868 572.125 89.9787C572.202 90.1705 572.242 90.3763 572.242 90.5842C572.242 90.792 572.202 90.9979 572.125 91.1898C572.047 91.3817 571.934 91.5559 571.791 91.7023C571.648 91.8488 571.478 91.9646 571.291 92.0432C571.105 92.1218 570.905 92.1615 570.703 92.1601H570.703Z" fill="#0FC2C0"/>
<path d="M651.207 92.6854H587.746C587.343 92.6826 586.957 92.5153 586.672 92.2201C586.388 91.9249 586.228 91.5256 586.228 91.1095C586.228 90.6934 586.388 90.2942 586.672 89.999C586.957 89.7038 587.343 89.5365 587.746 89.5337H651.207C651.611 89.5365 651.997 89.7038 652.282 89.999C652.566 90.2942 652.726 90.6934 652.726 91.1095C652.726 91.5256 652.566 91.9249 652.282 92.2201C651.997 92.5153 651.611 92.6826 651.207 92.6854Z" fill="#0FC2C0"/>
<path d="M377.825 76.6066C384.339 76.6066 389.619 71.1625 389.619 64.4469C389.619 57.7312 384.339 52.2871 377.825 52.2871C371.31 52.2871 366.03 57.7312 366.03 64.4469C366.03 71.1625 371.31 76.6066 377.825 76.6066Z" fill="#0FC2C0"/>
<path d="M458.815 76.6066C465.329 76.6066 470.61 71.1625 470.61 64.4469C470.61 57.7312 465.329 52.2871 458.815 52.2871C452.301 52.2871 447.02 57.7312 447.02 64.4469C447.02 71.1625 452.301 76.6066 458.815 76.6066Z" fill="#0FC2C0"/>
<path d="M539.805 76.6066C546.32 76.6066 551.6 71.1625 551.6 64.4469C551.6 57.7312 546.32 52.2871 539.805 52.2871C533.291 52.2871 528.011 57.7312 528.011 64.4469C528.011 71.1625 533.291 76.6066 539.805 76.6066Z" fill="#0FC2C0"/>
<path d="M620.796 76.6066C627.31 76.6066 632.591 71.1625 632.591 64.4469C632.591 57.7312 627.31 52.2871 620.796 52.2871C614.282 52.2871 609.001 57.7312 609.001 64.4469C609.001 71.1625 614.282 76.6066 620.796 76.6066Z" fill="#0FC2C0"/>
</svg>
