<svg width="57" height="32" viewBox="0 0 57 32" fill="none" xmlns="http://www.w3.org/2000/svg">
<path d="M50.5801 26.8789V29.3149C50.5801 30.4063 49.6894 31.2941 48.5945 31.2941H1.98524C0.890656 31.2941 0 30.4063 0 29.3149L0 9.24531C0 8.15391 0.890656 7.26635 1.98524 7.26635H3.55977V22.0642C3.55977 24.7192 5.72634 26.8789 8.38973 26.8789H50.5801ZM28.1501 8.8798C28.1501 9.73399 28.8462 10.428 29.702 10.428H30.28V7.33278H29.702C28.8459 7.33278 28.1501 8.02674 28.1501 8.8798ZM33.1399 16.374H33.7174C34.5734 16.374 35.2699 15.6797 35.2699 14.8264C35.2699 13.973 34.5734 13.2788 33.7174 13.2788H33.1399V16.374ZM57 1.96356V22.0639C57 23.1465 56.1162 24.0275 55.0299 24.0275H8.38973C7.30373 24.0275 6.41993 23.1465 6.41993 22.0639V1.96356C6.41993 0.88071 7.30373 0 8.38973 0L55.0299 0C56.1162 0 57 0.880995 57 1.96356ZM33.1399 10.4277V7.33278H36.6997C37.4897 7.33278 38.1298 6.69442 38.1298 5.90723C38.1298 5.12003 37.4897 4.48167 36.6997 4.48167H33.1399V4.17745C33.1399 3.39026 32.4998 2.7519 31.7098 2.7519C30.9199 2.7519 30.2797 3.39026 30.2797 4.17745V4.48167H29.7017C27.2688 4.48167 25.2896 6.45464 25.2896 8.88094C25.2896 11.3061 27.2688 13.2791 29.7017 13.2791H30.2797V16.3742H26.72C25.93 16.3742 25.2899 17.0126 25.2899 17.7998C25.2899 18.587 25.93 19.2254 26.72 19.2254H30.2797V19.8506C30.2797 20.6378 30.9199 21.2762 31.7098 21.2762C32.4998 21.2762 33.1399 20.6378 33.1399 19.8506V19.2254H33.7174C36.1505 19.2254 38.13 17.2521 38.13 14.8267C38.13 12.4012 36.1505 10.428 33.7174 10.428H33.1399V10.4277Z" fill="#FFBD7B"/>
</svg>
