<svg width="68" height="56" viewBox="0 0 68 56" fill="none" xmlns="http://www.w3.org/2000/svg">
<path d="M8.05342 17.588C7.72683 16.0677 7.47614 14.5394 7.18622 13.015C7.10947 12.6162 7.118 12.269 7.749 12.0443C7.91102 11.9868 8.07729 11.7333 8.01419 11.6373C7.93148 11.5114 7.63474 11.4005 7.41133 11.3815C7.228 11.366 7.01823 11.4948 6.82041 11.5597C6.59444 11.6333 6.377 11.7488 6.1408 11.7724C5.48336 11.8379 5.37678 12.0167 5.6846 12.423C5.94297 12.7633 6.16809 13.1346 6.25847 13.5088C6.48615 14.4537 6.68739 15.405 6.78715 16.3591C6.88521 17.3075 7.28428 19.7129 6.44266 20.7101C6.30623 20.8286 6.54157 21.0136 6.68312 21.1223C6.76669 21.1861 7.09583 21.205 7.17684 21.1504C7.51792 20.9228 7.85474 20.7625 8.35357 20.913C8.39365 20.9251 8.4559 20.9038 8.52923 20.8952C8.95473 20.7952 8.82938 20.5958 8.71853 20.3825C8.50024 19.9612 8.14722 18.0236 8.05342 17.588Z" fill="#0FC2C0"/>
<path d="M27.67 11.772C27.4338 11.7485 27.2164 11.6329 26.9904 11.5593C26.7926 11.4944 26.582 11.3657 26.3995 11.3812C26.1761 11.4001 25.8785 11.5111 25.7966 11.6369C25.7335 11.7329 25.8989 11.9864 26.0618 12.0439C26.692 12.2692 26.7013 12.6164 26.6246 13.0147C26.3347 14.539 26.084 16.0673 25.7565 17.5876C25.6636 18.0233 25.4291 19.9608 25.2108 20.3822C25.1 20.5954 24.9746 20.7948 25.3993 20.8949C25.4734 20.9035 25.5357 20.9247 25.5758 20.9127C26.0746 20.7621 26.4106 20.9224 26.7525 21.1501C26.8335 21.2047 27.1627 21.1863 27.2462 21.1219C27.3878 21.0138 27.6231 20.8282 27.4867 20.7098C26.6451 19.7125 26.9256 17.3071 27.0237 16.3587C27.1234 15.4046 27.3255 14.4533 27.5523 13.5084C27.6419 13.1342 27.8678 12.7629 28.1254 12.4227C28.4332 12.0163 28.3275 11.8375 27.67 11.772Z" fill="#0FC2C0"/>
<path d="M49.4427 12.1134C49.435 12.1146 49.4282 12.1146 49.4223 12.1157C48.7068 12.2307 48.0051 12.41 47.334 12.6353C47.6 14.9787 49.5911 17.2076 51.5515 17.2076C53.4999 17.2076 55.479 15.004 55.7621 12.6744C55.0808 12.441 54.368 12.2496 53.6414 12.1289L51.5097 13.5756L49.4427 12.1134Z" fill="#0FC2C0"/>
<path d="M57.0332 13.0366C57.0119 13.0275 56.9871 13.0229 56.965 13.0142C56.5599 15.3875 54.6251 17.7337 52.0653 18.0148C51.7021 19.2115 52.3322 19.6937 53.0698 20.2351C54.4137 21.2226 55.182 22.1601 52.8464 24.75C53.011 24.9161 53.109 25.1161 53.109 25.3311C53.109 25.9099 52.4141 26.3789 51.5546 26.3789C50.6959 26.3789 50.0009 25.9099 50.0009 25.3311C50.0009 24.7523 50.6959 24.2827 51.5546 24.2827C51.6398 24.2827 51.7208 24.2908 51.8027 24.2994C53.8381 22.0514 53.0903 21.4887 52.1531 20.8013C51.3635 20.2213 50.4034 19.5092 50.8042 17.978C48.3876 17.5854 46.5662 15.3547 46.151 13.0786C46.0265 13.1148 45.902 13.1493 45.7834 13.1982C44.8659 13.5775 43.968 13.9896 43.1008 14.4362C39.8299 13.8862 38.4596 12.6722 35.6252 10.1323C35.0777 9.64145 34.4757 9.10231 33.8132 8.52868V1.00889C33.8132 0.453081 33.1421 0.000732422 32.3167 0.000732422H1.4965C0.671079 0.000732422 0 0.453081 0 1.00889V21.7836C0 22.3394 0.671079 22.7917 1.4965 22.7917H32.3158C33.1412 22.7917 33.8123 22.3394 33.8123 21.7836V15.4852C36.0174 17.0894 38.5414 18.2585 42.7427 18.7902V21.9072C42.747 21.8991 42.7504 21.8899 42.7555 21.8824C42.7555 21.8824 42.7555 27.7021 42.7555 29.8753C42.7555 31.7008 43.4061 32.0272 43.4061 32.0272L43.4078 53.3537C43.4078 54.8154 45.1661 56 47.3337 56C49.5012 56 51.2595 54.8148 51.2595 53.3537L51.2578 34.9517C51.4147 34.9563 51.5673 34.9649 51.7251 34.9649C51.7558 34.9649 51.7865 34.9626 51.8172 34.9626L51.8138 53.352C51.8138 54.8137 53.572 55.9983 55.7396 55.9983C57.9072 55.9983 59.6655 54.8131 59.6655 53.352L59.6672 32.0405C59.6672 32.0405 60.2683 31.222 60.2683 29.8736C60.2683 28.5257 60.2683 21.7434 60.2683 21.7434C61.249 23.4947 61.6472 25.845 61.1492 29.1913C60.9667 30.4219 62.3003 31.5191 64.1243 31.6421C64.2368 31.6496 64.3485 31.6542 64.4602 31.6542C66.146 31.6542 67.5897 30.7921 67.7611 29.6379C69.2576 19.565 63.489 15.7059 57.0332 13.0366ZM32.315 1.00889L32.3158 7.42051C31.1826 6.89344 29.6341 6.89459 28.5059 7.50501C27.9133 7.82573 27.5483 8.26141 27.3974 8.7264C27.3718 8.54305 27.3463 8.35855 27.3113 8.1729C27.1331 7.22394 27.0572 6.26464 27.0077 5.30764C26.9881 4.92886 27.1015 4.53514 27.2567 4.16728C27.4418 3.72815 27.2866 3.56664 26.6223 3.58906C26.3835 3.59711 26.1371 3.51204 25.8941 3.4695C25.6903 3.43329 25.4592 3.34248 25.2861 3.36949C25.5189 2.93899 25.4993 2.58665 25.2264 2.32283C24.847 1.9544 24.1111 1.89979 23.7078 1.89979C23.5799 1.89979 23.498 1.90496 23.498 1.90496C23.4826 1.90611 23.4664 1.90784 23.4511 1.91014C23.1859 1.95152 20.8486 2.33605 20.2944 3.14533C20.2134 3.26374 20.1793 3.4057 20.1793 3.56319C20.0505 3.55515 19.9226 3.55055 19.7998 3.55055C19.353 3.55055 18.9718 3.60343 18.6768 3.70286V3.46261C18.6768 3.24649 18.5267 3.05394 18.2948 2.92922C18.346 2.85909 18.3766 2.7815 18.3766 2.69816V2.42226C18.3766 2.37628 18.3604 2.33317 18.3332 2.29409C18.5719 2.17741 18.7305 1.98946 18.7305 1.77564V1.67908C18.7305 1.59114 18.7706 1.16006 18.2504 1.00889H32.315ZM24.1026 9.1115C24.0088 9.28911 23.631 9.42303 23.093 9.46902C22.4321 9.52592 21.5879 9.44545 20.7796 9.2506C19.1304 8.85228 18.1336 8.11369 18.3442 7.71997C18.4176 7.58203 18.6069 7.49581 18.8175 7.44121C19.2669 7.6487 19.8015 7.8332 20.4035 7.97862C21.1531 8.15968 21.9137 8.25394 22.6018 8.25394C22.7979 8.25394 22.9889 8.24647 23.1714 8.23037C23.2328 8.2252 23.2916 8.21658 23.3513 8.20968C23.9243 8.53156 24.2245 8.88447 24.1026 9.1115ZM24.1026 11.029C24.0088 11.2066 23.631 11.3405 23.093 11.3859C22.4321 11.4428 21.5879 11.3629 20.7796 11.1675C19.1304 10.7692 18.1336 10.0306 18.3442 9.63685C18.4082 9.51615 18.6052 9.41499 18.8951 9.34889C19.3385 9.55063 19.8612 9.72939 20.4487 9.87136C21.1982 10.0524 21.9589 10.1467 22.647 10.1467C22.8431 10.1467 23.0341 10.1392 23.2166 10.1231C23.2533 10.1202 23.2865 10.1145 23.3232 10.111C23.9133 10.4369 24.2271 10.7962 24.1026 11.029ZM24.0582 7.21819C23.9644 7.3958 23.5867 7.52972 23.0486 7.5757C22.3878 7.63261 21.5436 7.55214 20.7352 7.35671C19.0861 6.95839 18.0901 6.21981 18.2999 5.82609C18.3792 5.67664 18.687 5.53755 19.0716 5.47375C19.4187 5.63986 19.8305 5.7824 20.2773 5.89046C20.6917 5.99047 21.1121 6.05485 21.5137 6.08014C21.5513 6.12497 21.5828 6.16348 21.6075 6.19164C21.6715 6.26694 21.79 6.31465 21.9196 6.31637C21.9222 6.31637 21.9248 6.31637 21.9282 6.31637C22.0544 6.31637 22.172 6.27269 22.2403 6.20141L22.3682 6.06634C22.4782 6.05427 22.583 6.0399 22.6828 6.02093C23.7615 6.45144 24.1964 6.95839 24.0582 7.21819ZM18.7322 4.3104C18.8209 4.14257 19.2404 4.03508 19.8007 4.03508C19.9516 4.03508 20.1093 4.04543 20.2714 4.0598C20.4334 4.56158 20.7881 5.11739 21.0993 5.54445C20.9075 5.51628 20.7139 5.48122 20.5203 5.43409C19.9269 5.29039 19.3931 5.07026 19.0571 4.83057C18.7834 4.63573 18.6623 4.44088 18.7322 4.3104ZM18.2632 10.9266C18.8021 11.2663 19.5491 11.5704 20.4487 11.7882C20.9817 11.917 21.5206 12.0015 22.0348 12.04C22.4824 12.4274 22.6572 12.7964 22.4748 12.9993C22.3289 13.1608 21.9205 13.2401 21.379 13.2131C20.7148 13.1786 19.9124 12.9866 19.1773 12.686C18.6589 12.4728 18.1976 12.2147 17.8454 11.9463C18.1754 11.583 18.3135 11.2342 18.2632 10.9266ZM14.6708 20.5438C14.9582 20.5426 15.2975 20.7783 15.7529 20.9634C15.4476 21.1209 15.2447 21.2772 15.1739 21.2536C14.8516 21.1462 14.5668 20.9892 14.2683 20.849C14.4065 20.7421 14.3834 20.5455 14.6708 20.5438ZM14.7339 18.516C15.1457 18.3108 15.5039 18.2637 15.8441 18.6315C16.1349 18.9448 16.5203 19.2276 16.927 19.4776C17.0575 19.5581 17.4753 19.5604 17.6092 19.4816C18.0032 19.2506 18.3016 18.9476 18.6742 18.6993C18.8772 18.5643 19.237 18.3585 19.3871 18.4022C19.7035 18.4941 20.1417 18.7269 20.146 18.9051C20.1537 19.2322 20.0266 19.6839 19.6958 19.865C18.438 20.8858 15.3163 20.4013 14.635 19.7472C14.1114 19.3155 14.1643 18.7999 14.7339 18.516ZM15.3794 21.7836C15.6062 21.7388 15.8433 21.664 16.0905 21.5566C16.8912 21.21 17.622 21.2042 18.4244 21.5479C18.687 21.66 18.9343 21.737 19.1663 21.783L15.3794 21.7836ZM18.9957 21.0134C19.2609 20.8507 19.4476 20.576 19.8041 20.5415C20.1605 20.507 20.1469 20.6634 20.5536 20.8197C20.0624 21.0232 19.7811 21.1743 19.4604 21.2508C19.3598 21.2749 19.1535 21.0979 18.9957 21.0134ZM20.065 21.7836C20.5408 21.6681 20.9058 21.3508 21.1386 20.8433C21.2733 20.5472 21.3202 19.7713 22.0092 19.5891C23.0324 18.9942 24.5579 18.1533 24.2194 17.3141C24.0625 17.0509 23.9201 16.6267 23.5901 16.2847C22.6197 15.2806 20.9603 15.1283 19.6523 15.8933C19.1756 16.1709 18.7271 16.4744 18.3059 16.7899C17.5521 17.3538 16.9944 17.3567 16.2432 16.798C15.8202 16.4836 15.3743 16.1784 14.8976 15.9019C13.535 15.1116 11.8014 15.3168 10.8421 16.3675C10.0747 17.2078 10.2026 17.8596 11.2045 18.6011C11.5158 18.8315 11.7068 19.1367 11.9524 19.408C13.0259 19.9018 13.234 20.399 13.3977 20.8254C13.5955 21.3422 13.9716 21.6658 14.4627 21.783H1.4965V1.00889H16.2526C16.1264 1.06234 16.0377 1.15258 16.0377 1.26064C16.0377 1.38134 16.1426 1.4848 16.2943 1.53366C16.3779 1.60091 17.7806 1.55378 17.7806 1.55378C17.8087 1.55378 17.8326 1.5693 17.8326 1.58826V1.77507C17.8326 1.79403 17.8096 1.81013 17.7806 1.81013H16.6388C16.3907 1.81013 16.1903 1.94577 16.1903 2.11303C16.1903 2.28029 16.3907 2.41594 16.6388 2.41594H17.4788C17.4788 2.41767 17.4779 2.41996 17.4779 2.42226V2.62229H16.8264C16.6312 2.62229 16.4666 2.70678 16.4052 2.82461C16.0198 2.92059 15.7452 3.17005 15.7452 3.46318V3.68849C15.457 3.59998 15.0963 3.55112 14.6751 3.55112C14.3894 3.55112 14.0884 3.57526 13.7823 3.6178C13.7908 3.43904 13.7593 3.27753 13.6689 3.14591C13.1146 2.33662 10.7765 1.9521 10.5121 1.91071C10.4968 1.90841 10.4806 1.90669 10.4644 1.90554C10.4644 1.90554 10.3834 1.90037 10.2563 1.90037C9.8513 1.90037 9.11542 1.95497 8.73596 2.3234C8.46139 2.58895 8.44263 2.94473 8.68139 3.37869C8.69162 3.39651 8.70527 3.41318 8.72062 3.4287C8.66349 3.40456 8.60379 3.38501 8.54837 3.37237C8.37356 3.33328 8.13054 3.43214 7.91737 3.4695C7.67435 3.51204 7.42877 3.59711 7.18916 3.58906C6.5249 3.56664 6.36971 3.72873 6.55474 4.16728C6.70994 4.53514 6.82335 4.92886 6.80373 5.30764C6.75342 6.26464 6.67839 7.22394 6.50017 8.1729C6.32366 9.1161 6.40126 10.0288 5.28762 10.8962C5.11964 10.9939 5.297 11.2071 5.4053 11.3319C5.46755 11.4054 5.7856 11.4669 5.88196 11.4238C6.28273 11.2451 6.65792 11.1318 7.10474 11.3451C7.14055 11.3623 7.20706 11.3497 7.2821 11.3508C7.72807 11.3083 7.66241 11.0956 7.61551 10.872C7.52342 10.43 7.35544 9.98287 7.38869 9.54374C7.50807 8.00909 7.70249 6.47731 7.85768 4.94438C7.8969 4.54319 8.00434 4.20407 8.68821 4.06612C8.86387 4.03049 9.09922 3.80402 9.06511 3.70114C9.06426 3.69827 9.0617 3.69424 9.05999 3.69079L10.0491 4.44145L10.779 5.20935C10.7714 5.30649 10.7876 5.40305 10.837 5.49559C10.8583 5.53697 10.8873 5.57663 10.9206 5.61457C9.74216 6.1652 9.18534 6.86126 9.49317 7.44006C9.60317 7.64698 9.81123 7.81826 10.1011 7.95046C9.46247 8.4074 9.21945 8.90344 9.44797 9.33394C9.56394 9.55236 9.78905 9.73111 10.1054 9.86619C9.46929 10.3226 9.21945 10.8215 9.44797 11.2514C9.6765 11.6802 10.3186 11.9601 11.2557 12.0406C11.2608 12.0406 11.2642 12.0406 11.2685 12.0411C10.889 12.5245 10.8421 12.9872 11.1611 13.3419C11.4766 13.6907 12.082 13.8781 12.8844 13.8781C12.9765 13.8781 13.0711 13.8758 13.1683 13.8706C13.9937 13.8281 14.9292 13.6074 15.8049 13.2493C16.0138 13.1637 16.2108 13.0706 16.4001 12.974C16.406 12.974 16.4112 12.9751 16.418 12.9751H18.056C18.0637 12.9751 18.0714 12.9763 18.0782 12.9763C18.1532 13.0142 18.2266 13.0522 18.305 13.0884C18.3187 13.1096 18.3246 13.1321 18.3246 13.1562V13.2941C18.3246 13.3942 18.2035 13.4752 18.056 13.4752H16.418C16.1698 13.4752 15.9686 13.6109 15.9686 13.7781C15.9686 13.8643 16.0223 13.9413 16.1085 13.9965C16.1801 14.0994 16.3336 14.1707 16.5135 14.1707H17.9605C18.062 14.1707 18.1456 14.227 18.1456 14.296V14.4178C18.1456 14.4868 18.062 14.5426 17.9605 14.5426H16.5135C16.2654 14.5426 16.065 14.6782 16.065 14.8455C16.065 14.9662 16.1707 15.0696 16.3225 15.1185C16.4052 15.1857 16.5271 15.2288 16.667 15.2288H17.8079C17.836 15.2288 17.8608 15.2444 17.8608 15.2639V15.3599C17.8608 15.3789 17.8369 15.395 17.8079 15.395H16.667C16.4188 15.395 16.2185 15.5306 16.2185 15.6979C16.2185 15.8651 16.4188 16.0008 16.667 16.0008H17.5069C17.5069 16.0025 17.506 16.0048 17.506 16.0071V16.2065H16.8546C16.6064 16.2065 16.4052 16.3422 16.4052 16.5094C16.4052 16.6767 16.6064 16.8118 16.8546 16.8118H17.6186C18.0518 16.8118 18.4039 16.5744 18.4039 16.283V16.0071C18.4039 15.9611 18.3869 15.918 18.3596 15.8789C18.5992 15.7628 18.757 15.5743 18.757 15.3605V15.2645C18.757 15.1616 18.7177 15.0656 18.6538 14.9794C18.8917 14.8455 19.0443 14.6437 19.0443 14.4184V14.2966C19.0443 14.1391 18.9684 13.9937 18.8431 13.8741C19.0239 13.7626 19.1526 13.6137 19.2012 13.4453C19.9149 13.6861 20.6448 13.8362 21.3048 13.8695C21.402 13.8747 21.4967 13.877 21.5896 13.877C22.3903 13.877 22.9966 13.6902 23.3121 13.3407C23.631 12.9866 23.5841 12.5234 23.2047 12.04C23.2089 12.0394 23.2132 12.0394 23.2175 12.0394C24.1554 11.9589 24.7975 11.679 25.0252 11.2502C25.2546 10.8203 25.0047 10.3214 24.3686 9.86504C24.6841 9.73054 24.9092 9.55121 25.0252 9.33279C25.2546 8.90229 25.0107 8.40683 24.372 7.94931C24.6619 7.81768 24.87 7.64583 24.98 7.43891C25.2878 6.86011 24.731 6.16405 23.5534 5.61342C23.5858 5.57548 23.614 5.53582 23.637 5.49444C23.7487 5.28407 23.7052 5.05761 23.5389 4.8346L23.9133 4.43973L24.7651 3.79368C24.8248 3.90231 24.9911 4.03738 25.1233 4.06382C25.8071 4.20177 25.9154 4.54089 25.9563 4.94208C26.1115 6.47501 26.306 8.00736 26.4253 9.54144C26.4586 9.98057 26.2915 10.4277 26.1985 10.8697C26.1508 11.0933 26.0851 11.3054 26.5319 11.3485C26.6061 11.3474 26.6735 11.36 26.7093 11.3428C27.1544 11.1295 27.5313 11.2428 27.9321 11.4215C28.0276 11.4646 28.3456 11.4031 28.4087 11.3296C28.4821 11.2451 28.5784 11.1221 28.5869 11.0198C29.281 11.6164 29.9069 12.1762 30.5141 12.7205C31.1348 13.2763 31.7257 13.8063 32.3175 14.3058L32.3184 21.7807H20.065V21.7836ZM14.1975 5.89046C14.6435 5.7824 15.0554 5.63928 15.4024 5.47375C15.787 5.53755 16.0957 5.67664 16.1741 5.82609C16.3839 6.21981 15.3871 6.95839 13.7388 7.35671C12.9304 7.55214 12.0862 7.63203 11.4254 7.5757C10.8873 7.52972 10.5104 7.3958 10.4158 7.21819C10.2845 6.97276 10.6673 6.50662 11.619 6.09278L11.7221 6.20141C11.7895 6.27326 11.908 6.31637 12.0342 6.31637C12.0368 6.31637 12.0393 6.31637 12.0428 6.31637C12.1715 6.31465 12.2909 6.26694 12.3548 6.19164C12.377 6.1652 12.4069 6.13014 12.441 6.08933C12.4879 6.09048 12.5339 6.09278 12.5825 6.09278C13.0907 6.09278 13.6501 6.02266 14.1975 5.89046ZM12.8247 5.59962C13.13 5.18521 13.4889 4.63573 13.6697 4.13107C14.0168 4.06785 14.3587 4.03451 14.6751 4.03451C15.2344 4.03451 15.6531 4.14257 15.7426 4.30983C15.8126 4.4403 15.6906 4.63458 15.4178 4.83C15.0818 5.06968 14.5489 5.28982 13.9545 5.43351C13.5708 5.5272 13.1862 5.58181 12.8247 5.59962ZM11.1227 8.20911C11.1824 8.216 11.2412 8.22463 11.3026 8.2298C11.4859 8.24532 11.6761 8.25336 11.8722 8.25336C12.5603 8.25336 13.321 8.1591 14.0705 7.97805C14.6725 7.83263 15.2071 7.6487 15.6565 7.44063C15.8671 7.49523 16.0564 7.58203 16.1298 7.7194C16.3395 8.11312 15.3427 8.85171 13.6953 9.25003C12.8861 9.44545 12.0428 9.52534 11.3811 9.46844C10.843 9.42246 10.4661 9.28854 10.3715 9.11093C10.2495 8.88447 10.5497 8.53156 11.1227 8.20911ZM11.1508 10.1105C11.1875 10.1139 11.2207 10.1197 11.2574 10.1225C11.4407 10.1381 11.6309 10.1461 11.827 10.1461C12.5152 10.1461 13.2758 10.0518 14.0253 9.87078C14.6128 9.72881 15.1364 9.55006 15.5789 9.34831C15.8688 9.41499 16.065 9.51557 16.1298 9.63628C16.3395 10.03 15.3427 10.7686 13.6953 11.1669C12.8861 11.3623 12.0428 11.4422 11.3811 11.3853C10.843 11.3393 10.4661 11.206 10.3715 11.0284C10.247 10.7962 10.5616 10.4369 11.1508 10.1105ZM12.4393 12.0394C12.9543 12.0009 13.4924 11.917 14.0253 11.7877C14.9258 11.5698 15.6727 11.2658 16.2108 10.9261C16.1605 11.2336 16.2986 11.5825 16.6277 11.9451C16.2764 12.2136 15.8151 12.4722 15.2958 12.6849C14.5616 12.9861 13.7584 13.178 13.0941 13.212C12.5527 13.239 12.1442 13.1597 11.9984 12.9981C11.8159 12.7958 11.9907 12.4268 12.4393 12.0394Z" fill="#0FC2C0"/>
<path d="M51.5494 11.826C55.9912 11.826 59.5947 9.39816 59.5947 6.40358C59.5947 5.15057 58.9501 4.00619 57.8893 3.09H55.2877V2.26749H56.7151C56.2154 1.98413 55.6714 1.7341 55.0796 1.53868C54.4674 0.633978 53.121 0 51.5511 0C49.9839 0 48.6383 0.632828 48.0252 1.53638C47.4309 1.73237 46.8851 1.98298 46.382 2.26749H48.0158V3.09057H45.2096C44.1514 4.00676 43.5059 5.15114 43.5059 6.40415C43.5059 9.39816 47.1068 11.826 51.5494 11.826ZM51.5511 1.14495C52.756 1.14495 53.7366 1.80537 53.7366 2.6181C53.7366 3.43084 52.7569 4.09125 51.5511 4.09125C50.3454 4.09125 49.3657 3.43084 49.3657 2.6181C49.3657 1.80537 50.3463 1.14495 51.5511 1.14495Z" fill="#0FC2C0"/>
</svg>
