<svg width="46" height="57" viewBox="0 0 46 57" fill="none" xmlns="http://www.w3.org/2000/svg">
<path d="M43.7449 0H2.25519C1.00979 0 0 1.00968 0 2.25519V54.2737C0 55.5191 1.00968 56.5289 2.25519 56.5289H32.171C32.7691 56.5289 33.3426 56.2914 33.7655 55.8684L45.3394 44.2944C45.7623 43.8716 46 43.298 46 42.6997V2.25519C46.0001 1.00968 44.9905 0 43.7449 0ZM21.7094 42.4183H18.3306V45.7972C18.3306 47.0426 17.3209 48.0524 16.0754 48.0524C14.8299 48.0524 13.8202 47.0427 13.8202 45.7972V42.4183H10.4413C9.19587 42.4183 8.18608 41.4086 8.18608 40.1631C8.18608 38.9176 9.19576 37.9079 10.4413 37.9079H13.8202V34.529C13.8202 33.2836 14.8299 32.2738 16.0754 32.2738C17.3209 32.2738 18.3306 33.2834 18.3306 34.529V37.9079H21.7094C22.9548 37.9079 23.9645 38.9176 23.9645 40.1631C23.9645 41.4086 22.9549 42.4183 21.7094 42.4183ZM22.098 27.5084H10.4415C9.19609 27.5084 8.1863 26.4988 8.1863 25.2533C8.1863 24.0077 9.19598 22.9981 10.4415 22.9981H22.098C23.3434 22.9981 24.3532 24.0077 24.3532 25.2533C24.3532 26.4988 23.3434 27.5084 22.098 27.5084ZM35.5586 20.5876H10.4415C9.19609 20.5876 8.1863 19.578 8.1863 18.3326C8.1863 17.0872 9.19598 16.0774 10.4415 16.0774H35.5586C36.804 16.0774 37.8138 17.0871 37.8138 18.3326C37.8138 19.5781 36.804 20.5876 35.5586 20.5876ZM35.5586 13.6666H10.4415C9.19609 13.6666 8.1863 12.6569 8.1863 11.4114C8.1863 10.1659 9.19598 9.15623 10.4415 9.15623H35.5586C36.804 9.15623 37.8138 10.1659 37.8138 11.4114C37.8138 12.6569 36.804 13.6666 35.5586 13.6666Z" fill="#2A8FE7"/>
</svg>
