<svg width="68" height="56" viewBox="0 0 68 56" fill="none" xmlns="http://www.w3.org/2000/svg">
<path d="M36.1181 26.1713C28.2848 27.5364 24.37 24.6289 24.1664 24.4735C23.1772 23.6867 21.5765 23.6798 20.5779 24.4614C19.5722 25.2475 19.557 26.5356 20.5433 27.3367C20.739 27.4956 24.6632 30.6006 32.1094 30.6006C33.6574 30.6006 35.3578 30.4676 37.2083 30.1442C38.5845 29.9042 39.4553 28.8193 39.1542 27.7235C38.8538 26.6259 37.4935 25.9324 36.1181 26.1713Z" fill="#6C87FF"/>
<path d="M12.9828 25.4465C16.1522 25.4465 18.7214 23.3985 18.7214 20.8722C18.7214 18.3458 16.1522 16.2979 12.9828 16.2979C9.81342 16.2979 7.24414 18.3458 7.24414 20.8722C7.24414 23.3985 9.81342 25.4465 12.9828 25.4465Z" fill="#6C87FF"/>
<path d="M66.0442 39.6037L55.2969 36.1436C54.9243 36.0244 54.5272 35.9628 54.1265 35.9628H51.3879V35.4886C51.3879 35.2457 51.3092 35.0201 51.1778 34.8181L61.3092 37.0218C61.5771 37.08 61.8464 37.1082 62.1114 37.1082C63.4471 37.1082 64.671 36.4003 65.0399 35.3229C65.4818 34.0325 64.528 32.7002 62.9092 32.3491L49.5633 29.4449C49.2983 29.3874 49.0377 29.3874 48.7474 29.3885L39.6492 29.3955C39.2254 30.1937 38.3409 30.8228 37.2008 31.0219C35.6997 31.2838 34.1719 31.4167 32.6578 31.4167C25.2722 31.4167 20.2404 28.2691 20.0303 28.135C19.3068 27.6752 18.8505 27.0179 18.7473 26.2847C18.6426 25.5509 18.9032 24.8286 19.4816 24.2508C20.143 23.5889 21.1321 23.2096 22.1942 23.2096C22.9697 23.2096 23.7329 23.4209 24.343 23.8047C24.4455 23.868 26.4202 25.0703 29.5603 25.6182L23.9567 22.7383C21.9812 21.7219 19.5379 22.4235 18.104 23.5049C18.104 23.5049 17.6245 23.8312 17.2881 24.268C16.966 24.6859 16.7148 25.2067 16.7148 25.2067L16.7068 25.2194C16.0577 26.7169 16.2664 28.7733 18.2491 29.7931L28.8946 35.2653C29.021 35.3303 29.1502 35.389 29.2787 35.4408C29.2787 35.4564 29.273 35.4725 29.273 35.488V35.9623H26.2455L12.0837 28.1293C12.1537 28.0683 12.2209 28.0027 12.2787 27.9296C12.7985 27.2677 12.5465 26.3946 11.7155 25.9791L6.89452 23.5722C6.08513 23.1676 5.0288 23.3512 4.49234 23.9739C3.12916 23.4427 1.44973 23.7598 0.558026 24.7837C-0.426094 25.9141 -0.0744677 27.4668 1.34431 28.2513L23.4852 40.5015C24.008 40.7916 24.6303 40.9458 25.2672 40.9458H29.395C29.6578 41.5104 30.3351 41.915 31.1329 41.915H35.06V53.611H33.1473C32.3199 53.611 31.6499 54.1462 31.6499 54.8058C31.6499 55.4653 32.3206 56 33.1473 56H47.7554C48.5828 56 49.2536 55.4653 49.2536 54.8058C49.2536 54.1462 48.5821 53.611 47.7554 53.611H45.6016V41.915H49.5279C50.3265 41.915 51.003 41.511 51.2666 40.9458H53.5186L63.7027 44.2246C64.0854 44.3483 64.4818 44.4065 64.871 44.4065C66.11 44.4065 67.2796 43.8171 67.7713 42.8474C68.4183 41.5708 67.6457 40.1193 66.0442 39.6037Z" fill="#6C87FF"/>
<path d="M25.6483 21.7816C31.3314 21.7816 34.4809 20.5701 36.5343 19.1359V22.276C36.3509 22.9068 36.0144 24.0786 35.6173 25.484C35.7697 25.4599 35.9199 25.4403 36.0722 25.4138C36.3191 25.3707 36.569 25.3494 36.8181 25.3494C38.4397 25.3494 39.8701 26.2668 40.2173 27.5312C40.3184 27.9013 40.3213 28.2696 40.2404 28.6207L48.8968 28.5861C49.2773 28.5861 49.6109 28.6218 49.9618 28.6967L51.2297 28.9729C50.5091 26.1678 49.6896 23.4064 49.3517 22.2893V18.5569C50.2809 20.0999 50.8614 22.3106 50.8022 25.6993C50.7835 26.7686 51.8564 27.6486 53.1979 27.6636C53.2109 27.6636 53.221 27.6636 53.2333 27.6636C54.5597 27.6636 55.6449 26.8141 55.6615 25.7534C55.8239 16.5426 50.0347 12.2215 44.4701 10.5801C44.4643 10.5789 44.4585 10.5789 44.4549 10.5778L42.9408 11.8434L41.382 10.5916C40.5141 10.7614 39.665 11.071 38.9242 11.4923C38.9033 11.5015 36.7675 12.7487 35.2722 14.4114C33.5321 16.287 32.0296 17.906 25.6462 17.906C24.3046 17.906 23.2158 18.7739 23.2158 19.8438C23.2173 20.9143 24.3061 21.7816 25.6483 21.7816Z" fill="#6C87FF"/>
<path d="M43.0351 10.1996C46.2749 10.1996 48.9038 8.10579 48.9038 5.52223C48.9038 4.44195 48.4337 3.45492 47.6583 2.66471H45.7608V1.95508H46.8034C46.4381 1.71048 46.0409 1.49523 45.6092 1.3266C45.1644 0.54618 44.1803 0 43.0366 0C41.8943 0 40.9131 0.545029 40.4647 1.32487C40.0308 1.49351 39.633 1.70991 39.2669 1.95508H40.4582V2.66471H38.4113C37.6402 3.45492 37.168 4.44195 37.168 5.52223C37.1694 8.10579 39.7947 10.1996 43.0351 10.1996ZM43.0366 0.986462C43.9167 0.986462 44.6308 1.55624 44.6308 2.25724C44.6308 2.95823 43.916 3.52801 43.0366 3.52801C42.1579 3.52801 41.4438 2.95823 41.4438 2.25724C41.4438 1.55624 42.1579 0.986462 43.0366 0.986462Z" fill="#6C87FF"/>
</svg>
